<?xml version="1.0" standalone="no"?>
<!DOCTYPE svg PUBLIC "-//W3C//DTD SVG 20010904//EN"
 "http://www.w3.org/TR/2001/REC-SVG-20010904/DTD/svg10.dtd">
<svg version="1.0" xmlns="http://www.w3.org/2000/svg"
 width="600.000000pt" height="600.000000pt" viewBox="0 0 600.000000 600.000000"
 preserveAspectRatio="xMidYMid meet">

<g transform="translate(0.000000,600.000000) scale(0.100000,-0.100000)"
fill="#000000" stroke="none">
<path d="M3183 5303 c32 -2 81 -2 110 0 29 2 3 3 -58 3 -60 0 -84 -1 -52 -3z"/>
<path d="M2995 5280 c-94 -25 -240 -101 -292 -152 -50 -49 -49 -61 2 -22 20
15 58 33 85 40 27 7 80 32 117 57 90 58 103 65 165 81 40 11 46 15 23 15 -16
0 -61 -8 -100 -19z"/>
<path d="M3383 5289 c54 -13 84 -30 155 -92 46 -40 85 -63 147 -86 110 -42
135 -62 135 -108 0 -30 9 -45 56 -92 83 -81 109 -150 84 -217 -6 -15 -38 -59
-72 -98 -34 -39 -63 -72 -63 -73 -2 -3 -242 70 -319 96 -71 25 -175 28 -237 6
-24 -9 -66 -30 -94 -47 -27 -18 -51 -32 -52 -33 -2 -1 6 -42 17 -91 26 -119
26 -118 -11 -98 -39 20 -79 6 -114 -41 -35 -44 -48 -86 -121 -380 -124 -501
-148 -570 -230 -670 -91 -112 -144 -204 -144 -252 0 -35 18 -36 25 -1 10 47
39 91 113 172 36 39 75 94 88 121 13 28 57 193 98 367 76 324 117 461 166 558
37 73 71 104 104 96 25 -6 37 -26 16 -26 -19 0 -70 -93 -119 -219 -57 -145
-143 -433 -160 -536 -33 -192 -76 -304 -153 -390 -81 -91 -129 -158 -165 -228
-19 -38 -37 -67 -40 -63 -3 3 -6 63 -7 133 l-1 128 -43 94 c-51 111 -72 228
-72 401 0 163 21 229 141 444 111 199 146 251 227 344 125 144 170 164 305
135 76 -17 64 3 -14 21 -126 31 -165 14 -295 -131 -63 -71 -92 -96 -99 -88 -5
6 -36 31 -68 54 -62 47 -117 116 -143 177 -12 29 -15 61 -12 124 4 79 3 82 -8
45 -20 -63 -17 -157 7 -220 26 -71 108 -161 172 -189 l47 -21 -26 -39 c-34
-50 -157 -263 -194 -336 -52 -102 -71 -185 -72 -300 0 -143 25 -274 74 -395
39 -96 41 -105 43 -215 0 -63 4 -128 8 -145 l8 -30 -15 30 c-8 17 -22 48 -31
70 l-16 40 7 -50 c3 -27 12 -65 20 -84 8 -18 15 -52 15 -75 l1 -41 13 55 c15
63 18 53 15 -41 -1 -42 4 -77 13 -95 8 -16 17 -72 20 -125 6 -95 42 -234 70
-273 11 -15 11 -27 0 -69 -7 -28 -13 -61 -12 -72 0 -11 7 8 16 43 8 34 19 62
24 62 5 0 9 -4 9 -9 0 -12 63 -41 88 -41 31 0 80 46 107 101 33 65 31 74 -4
19 -58 -91 -104 -114 -160 -80 -23 14 -31 26 -28 38 3 9 17 49 31 87 42 115
30 181 -47 273 -47 56 -52 73 -32 133 l17 50 46 -7 c26 -4 47 -7 47 -8 0 -14
57 -106 94 -151 42 -53 49 -69 60 -134 6 -41 23 -97 36 -124 23 -44 24 -53 13
-95 -38 -157 -152 -281 -260 -282 -50 0 -84 -14 -146 -62 -64 -48 -120 -131
-163 -242 -49 -129 -222 -351 -510 -654 -175 -183 -224 -253 -217 -309 3 -27
5 -28 71 -31 l67 -3 -6 40 c-9 56 7 88 72 141 131 107 261 258 360 416 51 81
74 95 29 17 -78 -135 -215 -306 -352 -438 -70 -67 -83 -85 -83 -112 0 -68 -51
-63 621 -63 480 0 609 3 609 13 1 52 49 529 54 534 3 4 6 -9 6 -28 0 -34 -33
-376 -46 -471 l-6 -48 676 0 675 0 10 38 c22 82 30 132 36 238 l7 110 -37 30
c-84 67 -180 163 -216 216 -22 31 -64 106 -95 165 -31 59 -67 124 -81 144 -13
20 -28 61 -33 92 -11 69 -35 121 -66 146 l-24 19 30 91 c32 98 43 122 98 219
35 59 38 62 75 62 38 0 39 -1 32 -27 -30 -121 -38 -279 -16 -330 7 -18 17 -33
22 -33 5 0 3 13 -6 30 -8 16 -15 51 -15 77 l1 48 24 -73 c28 -81 69 -167 85
-177 5 -3 1 9 -10 28 -39 66 -80 195 -80 252 0 69 53 239 80 258 30 21 78 135
90 215 9 56 9 94 -1 160 -6 48 -12 98 -13 112 -1 14 -4 27 -7 30 -3 3 -14 29
-24 58 -15 46 -15 60 -5 98 7 25 16 46 19 48 3 2 24 -8 46 -23 51 -34 55 -62
18 -110 -47 -58 -50 -70 -5 -21 23 25 44 53 47 62 8 24 -19 62 -60 84 -19 10
-34 21 -33 24 16 32 105 308 135 415 30 113 51 297 43 385 -11 115 -28 152
-114 240 -40 41 -94 102 -119 136 -25 33 -69 83 -97 110 -48 46 -185 144 -202
144 -15 0 -8 20 26 67 56 79 76 128 76 183 0 59 -16 102 -70 185 -21 33 -41
79 -45 102 -3 22 -14 48 -24 57 -10 9 -65 33 -123 54 -64 24 -129 56 -169 84
-65 46 -142 79 -182 77 -13 -1 -7 -4 16 -10z m173 -728 c55 -16 134 -39 177
-50 120 -32 246 -101 331 -180 38 -36 179 -215 247 -317 45 -66 61 -142 48
-229 -5 -33 -14 -100 -19 -150 -6 -49 -15 -115 -21 -145 l-11 -54 -19 35 c-22
44 -123 135 -244 219 -58 41 -173 145 -325 295 -178 175 -258 246 -329 293
-51 34 -99 62 -105 62 -6 0 -24 -7 -40 -15 -37 -19 -41 -14 -22 24 14 27 14
30 1 25 -8 -4 -15 -11 -15 -18 -1 -19 -21 22 -45 95 l-24 70 36 15 c117 49
131 53 204 53 56 1 103 -7 175 -28z m-380 -295 c13 -20 20 -23 38 -16 61 23
88 -29 146 -280 59 -257 108 -370 192 -445 27 -24 69 -51 93 -61 l44 -17 -39
-44 c-35 -41 -110 -172 -110 -194 0 -5 27 11 61 36 34 25 65 45 70 45 20 0 7
-20 -21 -35 -16 -9 -30 -17 -30 -18 0 -1 24 -2 52 -3 29 -1 77 -3 107 -6 76
-6 92 -2 141 43 24 22 59 47 77 56 34 16 35 15 60 -10 36 -35 34 -100 -5 -192
-50 -117 -65 -236 -37 -302 8 -19 15 -41 15 -47 0 -14 -68 -96 -80 -96 -4 0
-10 17 -14 38 -11 75 -65 163 -150 247 -159 157 -349 215 -559 170 -204 -43
-354 -219 -392 -459 l-6 -38 -31 28 c-18 17 -58 86 -95 164 l-64 135 20 41
c12 23 21 44 21 48 0 5 22 33 50 64 33 37 58 56 77 58 15 2 47 17 70 34 24 16
46 30 50 30 11 0 -22 -33 -50 -51 -16 -9 -24 -20 -19 -23 6 -3 34 10 64 30
l53 36 -29 -31 c-38 -40 -25 -54 14 -16 l30 29 1 -30 c0 -16 3 -23 6 -16 2 6
11 12 19 12 8 0 14 10 14 25 0 14 5 25 10 25 6 0 10 -11 10 -25 0 -14 5 -25
10 -25 6 0 10 8 10 18 0 32 11 32 37 1 14 -16 30 -29 35 -29 6 0 4 8 -5 18
-27 29 -21 49 6 24 31 -29 43 -28 23 3 -17 26 -9 34 13 13 11 -11 13 -10 8 5
-5 14 0 17 29 17 20 0 34 4 32 9 -6 17 -119 141 -128 141 -5 0 2 -21 16 -47
l25 -48 -28 -8 c-61 -17 -260 20 -271 51 -2 7 13 29 32 48 41 41 41 49 1 34
-15 -6 -29 -9 -31 -7 -6 5 22 146 29 154 22 21 144 -3 290 -59 43 -17 81 -28
84 -25 3 3 -3 19 -13 35 -15 27 -30 34 -133 61 -64 17 -140 36 -169 42 -40 10
-51 16 -48 28 3 9 14 57 26 106 49 213 137 444 187 497 33 34 38 35 59 4z
m362 -218 c98 -95 226 -211 285 -258 59 -46 107 -87 107 -90 0 -3 -75 -25
-167 -48 -149 -38 -171 -46 -194 -73 l-26 -30 -31 48 c-44 69 -87 206 -116
374 -14 80 -33 168 -41 195 -18 59 -17 54 -4 54 6 0 90 -78 187 -172z m422
-434 c50 -14 59 -20 93 -73 42 -65 45 -81 18 -105 -18 -16 -18 -15 -15 11 2
15 1 21 -2 13 -10 -22 -36 -50 -59 -63 -14 -7 -10 1 13 27 32 36 40 56 24 56
-5 0 -17 -9 -28 -21 -10 -11 -28 -26 -39 -31 -19 -11 -19 -10 -2 9 28 32 20
36 -16 9 -42 -32 -53 -33 -33 -4 15 22 22 58 11 58 -3 0 -17 -12 -31 -27 l-25
-28 7 25 6 25 -31 -29 -31 -30 0 27 c0 32 -16 36 -25 7 -3 -11 -13 -20 -21
-20 -8 0 -13 4 -9 9 3 6 -9 7 -30 4 -27 -4 -50 2 -100 26 -36 18 -65 36 -65
40 0 20 238 99 299 100 19 1 60 -6 91 -15z m179 -55 c22 -22 31 -40 31 -64 0
-19 -4 -36 -8 -39 -9 -5 -56 88 -57 111 0 7 -9 19 -20 28 -20 16 -20 16 2 6
11 -6 35 -25 52 -42z m118 -146 c-5 -26 -81 -153 -92 -153 -8 0 10 107 28 168
l22 72 24 -27 c18 -20 22 -34 18 -60z m-529 15 c-3 -7 -20 -22 -38 -32 -34
-20 -35 -12 -2 27 17 20 46 23 40 5z m389 -55 c-8 -49 -17 -55 -47 -33 l-25
20 30 24 c41 34 49 32 42 -11z m-322 -52 c7 -12 -12 -24 -25 -16 -11 7 -4 25
10 25 5 0 11 -4 15 -9z m103 -27 c2 -1 -10 -10 -28 -19 -36 -19 -45 -15 -35
14 5 17 12 20 33 15 15 -4 29 -8 30 -10z m353 -7 c-5 -12 -16 -61 -26 -107 -9
-47 -21 -89 -25 -94 -10 -10 -35 28 -43 64 -5 20 5 40 44 93 28 37 52 67 55
67 2 0 0 -10 -5 -23z m-1396 -66 c-25 -23 -65 -37 -65 -21 0 6 15 17 33 25 45
20 55 18 32 -4z m620 -126 c33 -8 106 -38 162 -65 81 -40 111 -61 153 -107
100 -113 145 -252 122 -383 -14 -84 -40 -152 -55 -143 -6 3 -7 1 -3 -5 9 -16
-41 -87 -97 -139 -89 -82 -195 -122 -347 -130 -156 -8 -266 25 -387 118 -99
77 -149 176 -160 321 -18 248 148 495 361 538 68 13 188 11 251 -5z m630 -70
c-8 -39 -15 -74 -15 -78 0 -5 -4 -5 -10 -2 -16 10 -11 59 11 110 11 25 22 45
24 43 2 -2 -2 -35 -10 -73z m85 28 c0 -23 -17 -49 -26 -41 -9 10 4 58 16 58 6
0 10 -8 10 -17z m-1540 -179 c11 -31 19 -59 16 -61 -2 -2 -13 2 -25 9 -14 8
-20 21 -19 38 2 19 -1 24 -14 22 -21 -3 -22 2 -8 29 17 31 27 23 50 -37z
m1542 -12 c20 -65 22 -75 9 -70 -11 4 -81 96 -81 107 0 9 43 31 50 24 2 -2 12
-29 22 -61z m-120 3 c-6 -33 -22 -21 -22 17 0 25 3 28 14 19 7 -6 11 -22 8
-36z m113 -96 c3 -9 0 -31 -7 -49 l-13 -31 -38 51 c-36 48 -38 54 -26 81 l12
30 33 -32 c19 -18 36 -41 39 -50z m50 -116 c11 -111 -28 -271 -70 -287 -16 -6
-17 0 -11 77 4 45 13 105 21 131 8 27 12 59 9 72 -8 31 4 77 17 68 7 -4 10 3
9 17 -1 13 -1 29 0 34 4 20 18 -44 25 -112z m-129 29 c38 -63 48 -124 27 -166
-8 -17 -38 -70 -66 -118 -53 -90 -67 -99 -108 -78 -15 9 -19 7 -19 -5 0 -8 11
-20 23 -26 l24 -11 -57 -113 c-53 -104 -80 -171 -94 -235 -5 -22 -10 -25 -53
-26 -26 0 -74 -7 -105 -14 -37 -9 -61 -11 -67 -5 -5 6 -11 58 -15 117 l-7 107
68 32 c159 76 293 278 293 442 0 32 8 48 53 98 28 32 57 57 62 56 6 -2 24 -27
41 -55z m-1599 -9 c-3 -10 -5 -2 -5 17 0 19 2 27 5 18 2 -10 2 -26 0 -35z
m149 -185 c20 -38 17 -47 -6 -18 l-19 25 16 -45 c15 -43 15 -47 -8 -104 -13
-32 -28 -58 -34 -58 -21 0 -48 108 -52 212 l-5 105 47 -45 c26 -25 53 -57 61
-72z m1459 -122 c-17 -57 -40 -81 -69 -70 -9 3 -16 8 -16 10 0 2 21 36 47 76
52 81 64 75 38 -16z m-1114 -146 c115 -95 219 -134 364 -135 55 0 119 3 141 7
l42 8 7 -103 c6 -94 28 -248 41 -289 8 -26 25 -22 20 5 -3 12 -8 52 -11 90
l-7 67 27 -12 c20 -9 39 -9 84 0 66 14 98 15 104 5 3 -5 -1 -39 -9 -78 -7 -38
-13 -107 -14 -152 0 -80 -1 -83 -25 -89 -14 -3 -41 -3 -61 0 -28 6 -38 14 -50
42 -16 38 -29 46 -19 12 4 -13 9 -31 11 -40 3 -10 -3 -19 -16 -23 -12 -4 -56
-33 -100 -66 -123 -93 -154 -104 -284 -101 -60 1 -117 4 -126 7 -16 5 -18 27
-23 188 -5 204 -19 272 -63 319 -33 34 -95 67 -174 93 -30 10 -58 20 -63 22
-4 2 10 25 32 49 37 43 101 174 101 208 0 23 5 21 71 -34z m-110 -299 c101
-46 125 -71 151 -154 18 -60 22 -97 22 -227 l1 -155 -78 4 c-54 2 -97 10 -140
28 -39 16 -104 30 -181 39 -66 8 -136 19 -156 25 -52 17 -166 78 -185 100 -17
18 -16 22 24 91 94 164 132 210 203 247 112 57 218 58 339 2z m979 -125 c10
-22 21 -66 25 -97 l7 -55 -47 -38 c-25 -21 -49 -36 -52 -33 -6 6 15 240 24
263 8 21 23 7 43 -40z m-1536 -261 c3 -8 1 -15 -4 -15 -6 0 -10 7 -10 15 0 8
2 15 4 15 2 0 6 -7 10 -15z m1330 -25 c-10 -4 -35 -12 -54 -18 l-35 -11 23 19
c13 10 30 16 37 13 8 -3 15 0 15 6 0 6 7 7 17 4 15 -6 15 -7 -3 -13z m-1235
-46 c14 -12 -19 -1 -35 12 -18 14 -18 14 6 3 14 -6 27 -13 29 -15z m51 -14 c0
-5 -4 -10 -10 -10 -5 0 -10 5 -10 10 0 6 5 10 10 10 6 0 10 -4 10 -10z m1087
-36 c-3 -3 -12 -4 -19 -1 -8 3 -5 6 6 6 11 1 17 -2 13 -5z m-847 -14 c0 -5 -4
-10 -10 -10 -5 0 -10 5 -10 10 0 6 5 10 10 10 6 0 10 -4 10 -10z m80 -6 c0 -2
-11 -4 -25 -4 -14 0 -25 4 -25 9 0 4 11 6 25 3 14 -2 25 -6 25 -8z m45 -4 c13
-6 15 -9 5 -9 -8 0 -22 4 -30 9 -18 12 -2 12 25 0z m75 -20 c8 -5 11 -10 5
-10 -5 0 -17 5 -25 10 -8 5 -10 10 -5 10 6 0 17 -5 25 -10z m864 -156 c105
-201 191 -330 310 -464 30 -33 30 -34 2 -10 -41 36 -164 192 -230 290 -57 85
-176 309 -176 330 0 27 23 -9 94 -146z m-721 134 c-6 -11 -85 -9 -103 2 -10 6
4 9 46 7 34 -1 60 -5 57 -9z m212 -18 c26 -9 24 -9 -19 -5 -27 3 -68 5 -92 5
-24 0 -44 3 -44 8 0 10 119 5 155 -8z m102 14 c-3 -3 -12 -4 -19 -1 -8 3 -5 6
6 6 11 1 17 -2 13 -5z m933 -568 c0 -25 -12 -46 -25 -46 -11 0 -11 6 -2 30 12
31 27 40 27 16z"/>
<path d="M3318 4414 c-31 -16 -40 -51 -10 -39 69 29 87 20 230 -113 70 -64
200 -179 288 -255 99 -85 179 -163 208 -202 26 -36 62 -74 79 -86 18 -12 54
-43 82 -68 79 -74 21 -10 -130 144 -77 78 -207 202 -290 277 -82 74 -188 174
-234 223 -127 133 -163 152 -223 119z"/>
<path d="M4106 4202 c-9 -15 36 -89 96 -158 36 -42 64 -86 73 -114 7 -25 14
-36 14 -24 2 37 -28 120 -50 140 -12 10 -42 49 -66 86 -45 70 -58 84 -67 70z"/>
<path d="M4292 3860 c0 -14 2 -19 5 -12 2 6 2 18 0 25 -3 6 -5 1 -5 -13z"/>
<path d="M3520 3032 c0 -6 12 -13 28 -17 73 -18 165 -91 224 -178 65 -95 89
-166 98 -287 l7 -105 1 80 c3 161 -46 291 -148 395 -62 63 -210 142 -210 112z"/>
<path d="M2928 2663 c-19 -49 -21 -125 -4 -182 26 -89 60 -136 147 -201 76
-59 185 -118 195 -107 3 3 -19 16 -48 30 -70 33 -159 105 -196 159 -52 76 -74
154 -70 247 3 84 -4 101 -24 54z"/>
<path d="M3861 2424 c0 -11 3 -14 6 -6 3 7 2 16 -1 19 -3 4 -6 -2 -5 -13z"/>
<path d="M3114 5193 c-7 -4 18 -8 55 -9 101 -2 145 -18 212 -80 64 -58 95 -72
57 -25 -12 17 -31 42 -42 56 -10 15 -35 34 -54 42 -40 17 -211 29 -228 16z"/>
<path d="M2703 5011 c-58 -36 -184 -245 -198 -327 -7 -47 12 -104 48 -142 32
-35 114 -74 138 -67 29 9 21 20 -41 57 -70 42 -100 86 -100 147 1 89 66 225
147 308 23 24 41 43 40 43 -1 0 -16 -9 -34 -19z"/>
<path d="M2529 4941 c-58 -58 -109 -125 -109 -145 0 -6 9 5 21 24 11 19 45 58
74 86 29 29 58 61 64 73 15 28 15 27 -50 -38z"/>
<path d="M2823 4927 c8 -59 58 -188 98 -250 33 -53 90 -86 147 -87 41 0 34 15
-10 24 -68 14 -104 49 -158 158 -28 57 -54 122 -57 146 -3 23 -10 45 -16 49
-7 4 -8 -10 -4 -40z"/>
<path d="M3825 4793 c8 -18 15 -43 15 -57 0 -46 -31 -106 -67 -130 -37 -25
-31 -42 10 -27 34 13 75 65 82 105 7 34 -10 85 -39 121 -16 19 -16 18 -1 -12z"/>
<path d="M4050 4724 c0 -10 -16 -45 -36 -77 -20 -32 -34 -61 -31 -63 3 -3 24
19 46 48 42 56 55 98 34 105 -8 3 -13 -3 -13 -13z"/>
<path d="M4030 4488 c41 -45 50 -53 50 -45 0 2 -21 23 -47 47 l-48 45 45 -47z"/>
<path d="M2858 4448 c-27 -21 -70 -74 -113 -140 -120 -185 -255 -406 -276
-453 -27 -61 -44 -202 -44 -365 1 -132 10 -180 36 -180 6 0 7 9 3 23 -11 32
-6 160 11 283 8 59 15 129 15 156 0 95 18 133 173 366 154 231 219 309 268
319 38 7 37 23 0 23 -18 0 -47 -13 -73 -32z"/>
<path d="M2390 4427 c0 -20 30 -52 78 -83 29 -19 55 -40 58 -48 3 -7 -17 -61
-45 -120 -27 -58 -46 -106 -42 -106 15 0 115 205 108 223 -3 9 -28 32 -54 49
-26 18 -60 46 -75 63 -15 16 -28 26 -28 22z"/>
<path d="M2344 3280 c3 -19 20 -55 36 -80 20 -31 30 -60 30 -86 0 -29 3 -35
10 -24 18 28 10 66 -25 120 -19 30 -35 63 -35 72 0 9 -5 20 -12 24 -8 5 -9 -2
-4 -26z"/>
<path d="M2561 2084 c0 -11 3 -14 6 -6 3 7 2 16 -1 19 -3 4 -6 -2 -5 -13z"/>
<path d="M2316 1817 c-27 -35 -50 -87 -41 -95 3 -3 5 -1 5 4 0 6 15 36 34 67
39 64 39 73 2 24z"/>
<path d="M3950 1805 c0 -23 9 -48 24 -68 13 -18 34 -52 46 -75 12 -24 24 -42
27 -39 2 3 -14 43 -36 89 -23 46 -41 91 -41 100 0 9 -4 20 -10 23 -6 4 -10 -8
-10 -30z"/>
<path d="M2180 1525 c-24 -25 -42 -45 -39 -45 3 0 25 20 49 45 24 25 42 45 39
45 -3 0 -25 -20 -49 -45z"/>
<path d="M1670 949 c-97 -70 -104 -80 -108 -160 -3 -39 0 -75 5 -80 6 -6 10
18 11 62 1 85 10 101 92 164 33 25 60 48 60 51 0 6 0 6 -60 -37z"/>
</g>
</svg>
