<?xml version="1.0" standalone="no"?>
<!DOCTYPE svg PUBLIC "-//W3C//DTD SVG 20010904//EN"
 "http://www.w3.org/TR/2001/REC-SVG-20010904/DTD/svg10.dtd">
<svg version="1.0" xmlns="http://www.w3.org/2000/svg"
 width="1000.000000pt" height="1000.000000pt" viewBox="0 0 1000.000000 1000.000000"
 preserveAspectRatio="xMidYMid meet">

<g transform="translate(0.000000,1000.000000) scale(0.100000,-0.100000)"
fill="#000000" stroke="none">
<path d="M5616 8861 c-16 -18 -16 -21 7 -68 43 -85 61 -155 50 -199 -5 -25
-15 -40 -27 -42 -17 -4 -18 2 -11 68 5 53 4 71 -4 66 -6 -4 -11 -32 -11 -62 0
-79 -23 -69 -63 28 -38 90 -64 121 -132 155 -54 27 -53 24 14 -27 48 -37 78
-93 83 -154 l3 -40 -49 -3 c-27 -1 -54 -8 -62 -14 -7 -6 -17 -8 -22 -5 -5 3
-22 -8 -38 -24 -16 -16 -33 -29 -39 -30 -17 0 -98 59 -132 96 -26 27 -33 44
-33 75 0 21 -5 39 -10 39 -6 0 -10 -6 -8 -14 6 -31 -17 -16 -25 16 -11 41 -34
68 -59 68 -50 0 -128 -62 -164 -131 -15 -30 -40 -37 -72 -19 -23 13 -163 50
-190 50 -27 0 -73 -21 -67 -30 3 -4 -9 -10 -25 -14 -34 -6 -41 -26 -10 -26 24
0 83 -23 105 -42 80 -66 87 -80 58 -129 -14 -23 -23 -29 -40 -24 -17 4 -21 2
-17 -10 8 -20 -20 -20 -36 0 -7 8 -20 15 -29 15 -9 0 -26 18 -39 40 -16 29
-29 40 -46 40 -12 0 -31 10 -42 22 -25 28 -104 78 -123 78 -9 0 -32 -14 -51
-30 l-35 -30 33 16 c41 20 75 12 114 -26 35 -35 33 -61 -4 -71 -35 -9 -87 -50
-87 -68 -1 -12 2 -12 17 1 38 33 45 30 9 -5 -42 -42 -49 -45 -41 -19 5 14 3
14 -10 -2 -21 -25 -20 -46 0 -46 17 0 54 -36 54 -52 0 -4 15 -15 33 -23 l32
-14 -35 2 c-25 1 -38 8 -45 24 -6 15 -16 21 -26 18 -12 -4 -20 4 -29 27 -26
70 -30 78 -41 78 -8 0 -8 5 1 15 11 13 10 18 -6 30 -12 10 -14 13 -4 10 12 -4
16 3 17 35 2 45 -3 51 -17 18 -8 -22 -9 -21 -9 6 -1 28 -2 28 -20 12 -18 -17
-20 -17 -31 1 -11 17 -11 17 -5 -1 3 -11 1 -22 -5 -26 -7 -4 -14 -38 -16 -76
-4 -52 -2 -74 10 -89 15 -19 15 -19 16 13 0 25 4 32 20 32 18 0 25 -10 21 -32
0 -5 4 -8 10 -8 6 0 9 -7 5 -15 -3 -8 -1 -15 4 -15 6 0 10 -4 10 -10 0 -5 -9
-6 -22 -2 -42 14 -109 -2 -200 -49 -12 -7 -32 4 -77 42 -34 28 -61 58 -61 67
0 11 -9 18 -22 18 -13 1 -49 5 -81 9 -47 6 -64 4 -92 -11 -19 -10 -35 -24 -35
-31 0 -7 -8 -13 -18 -13 -10 0 -27 -6 -38 -14 -17 -13 -15 -14 19 -6 54 12
148 -21 161 -57 6 -14 -53 -62 -117 -95 -36 -18 -40 -18 -64 -3 -33 22 -57 79
-43 105 9 17 8 18 -23 7 -17 -6 -59 -11 -91 -10 l-59 1 32 -30 c30 -28 34 -55
6 -45 -23 9 -240 -13 -281 -28 -23 -9 -50 -25 -59 -35 -18 -19 -17 -20 11 -20
16 0 61 -7 99 -16 39 -8 106 -22 149 -30 44 -8 82 -16 84 -19 2 -2 2 -15 -2
-28 -4 -18 -15 -26 -40 -31 -35 -7 -76 -46 -76 -72 0 -20 -8 -17 -44 13 -46
39 -92 55 -157 54 -175 -1 -293 -152 -301 -388 l-3 -71 -30 5 c-16 3 -34 9
-40 13 -5 4 -22 0 -37 -10 l-27 -16 45 -22 c46 -22 65 -51 56 -85 -6 -23 -42
-16 -93 19 -41 28 -57 31 -38 7 13 -15 12 -15 -9 -4 -12 6 -28 11 -35 10 -6
-1 -20 1 -29 5 -9 4 -27 6 -40 4 -18 -2 -24 -10 -26 -35 -2 -18 -8 -33 -14
-33 -7 0 -9 -23 -6 -67 3 -38 3 -61 1 -53 -2 8 -15 20 -28 27 -24 11 -25 10
-25 -20 1 -18 5 -51 9 -74 l8 -42 -73 -65 c-40 -35 -87 -67 -104 -71 -21 -5
-30 -12 -30 -27 0 -17 -3 -18 -15 -8 -8 6 -19 9 -25 5 -16 -10 -12 -71 5 -85
13 -11 21 -9 45 8 16 12 34 22 40 22 5 0 10 4 10 9 0 5 10 13 23 17 12 3 29
13 38 21 13 10 26 12 58 4 68 -15 75 -3 -92 -159 -33 -31 -51 -87 -51 -167 -1
-55 -4 -63 -34 -92 -38 -36 -91 -57 -131 -51 -37 5 -51 -12 -44 -56 5 -31 11
-37 47 -49 31 -11 41 -19 40 -36 -1 -26 1 -26 26 -1 11 11 28 20 37 20 10 1
29 7 43 15 23 13 27 12 42 -8 15 -19 18 -20 18 -4 0 9 -4 17 -10 17 -20 0 -9
20 19 35 42 21 81 6 81 -33 0 -15 5 -33 12 -40 9 -9 6 -12 -14 -12 -14 0 -31
7 -39 16 -11 14 -13 14 -21 0 -5 -9 -17 -16 -27 -16 -11 0 -21 -7 -25 -15 -3
-8 -16 -15 -29 -15 -13 0 -33 -11 -45 -25 -12 -14 -26 -25 -31 -25 -14 0 -22
-30 -12 -48 13 -25 -10 -52 -43 -50 -14 1 -26 6 -26 10 0 4 -4 8 -9 8 -18 0
-32 -102 -24 -165 7 -56 10 -61 40 -69 31 -10 31 -10 26 -61 -7 -68 10 -118
54 -154 27 -22 33 -34 28 -50 -8 -25 -20 -26 -58 -6 -16 8 -62 21 -104 30 -42
9 -84 20 -94 25 -10 6 -22 10 -28 10 -20 0 -11 -48 14 -78 23 -27 24 -32 10
-46 -9 -8 -25 -36 -36 -61 -27 -60 -14 -101 46 -151 47 -38 89 -99 81 -119 -2
-7 -24 -17 -48 -23 -32 -8 -48 -19 -56 -37 -17 -37 -15 -44 17 -74 l29 -27
-15 -64 c-11 -48 -12 -70 -4 -88 15 -31 14 -42 -3 -42 -28 0 -63 -58 -80 -130
-9 -40 -27 -85 -41 -104 -32 -42 -32 -85 0 -153 23 -51 43 -67 107 -87 14 -4
18 -17 18 -56 0 -37 5 -55 19 -66 18 -15 17 -18 -25 -56 -43 -40 -74 -106 -74
-157 1 -67 55 -169 100 -189 27 -12 86 -7 96 9 3 5 16 9 30 9 19 0 24 5 24 27
0 42 18 14 21 -32 3 -65 -13 -92 -61 -100 -31 -5 -44 -13 -51 -32 -15 -41 8
-105 60 -165 23 -28 29 -45 34 -105 7 -85 26 -153 44 -160 10 -4 6 -18 -15
-57 -38 -66 -56 -136 -49 -186 5 -39 65 -180 76 -180 3 0 20 -12 36 -26 27
-24 36 -26 97 -21 63 4 66 3 55 -15 -16 -25 8 -43 68 -53 49 -7 65 -20 36 -30
-27 -8 -67 -72 -80 -129 -14 -59 1 -89 56 -113 34 -14 38 -13 64 6 l29 21 0
-22 c0 -45 4 -68 12 -68 8 0 12 31 9 58 -2 10 4 12 21 6 13 -4 32 -8 42 -9 11
-1 22 -7 24 -13 2 -7 10 -12 17 -12 7 0 26 -7 41 -15 16 -8 46 -15 67 -15 21
0 45 -7 53 -15 9 -8 24 -15 35 -15 10 0 19 -7 19 -15 0 -9 12 -27 26 -42 22
-22 31 -24 65 -19 33 5 39 4 39 -11 0 -40 -14 -46 -76 -33 -37 8 -92 10 -145
6 -65 -4 -98 -2 -133 10 -44 15 -93 14 -51 -1 67 -25 72 -29 71 -56 -1 -18 -5
-24 -11 -18 -15 15 -23 10 -30 -21 -8 -38 10 -96 38 -115 48 -34 129 -7 153
52 22 52 10 91 -34 111 l-37 16 30 4 c32 4 152 -25 160 -38 3 -5 -6 -25 -20
-46 -14 -20 -25 -43 -25 -51 0 -28 29 -81 48 -87 19 -6 19 -7 1 -43 -27 -54
-24 -74 21 -118 39 -38 43 -40 105 -39 36 0 69 4 75 10 6 6 12 26 14 46 2 19
6 40 10 47 4 6 1 11 -6 11 -10 0 -10 2 1 9 9 6 12 21 9 45 -6 53 29 91 75 81
70 -14 116 -16 136 -6 20 11 21 9 21 -28 0 -22 4 -42 10 -46 5 -3 7 -12 3 -21
-3 -8 3 -21 13 -29 18 -13 18 -15 -8 -42 -16 -16 -28 -39 -28 -51 0 -18 6 -22
29 -22 36 0 171 114 195 165 21 43 21 121 1 129 -17 6 -20 32 -5 41 26 16 47
-8 69 -75 12 -39 26 -68 32 -65 5 4 9 -5 9 -19 0 -14 5 -26 10 -26 6 0 10 -9
10 -20 0 -56 168 -320 265 -415 69 -68 112 -121 120 -144 4 -14 12 -20 21 -17
9 3 14 -1 14 -13 0 -10 12 -24 27 -32 15 -8 35 -21 43 -29 16 -14 126 -71 310
-159 47 -22 105 -45 129 -51 65 -17 371 -24 407 -9 16 6 41 11 57 10 15 -1 27
3 27 9 0 6 10 8 24 4 17 -4 27 0 35 13 7 12 10 13 11 4 0 -10 5 -8 18 6 9 10
33 26 52 33 35 15 40 16 61 19 5 0 8 5 5 10 -4 6 -20 6 -39 1 -31 -8 -59 -12
-177 -26 -70 -8 -160 -10 -160 -4 0 3 -21 5 -48 6 -80 2 -136 13 -259 53 -135
44 -357 147 -398 185 -15 14 -32 26 -36 26 -7 0 -41 21 -102 62 -9 7 -17 17
-17 23 0 5 -23 32 -49 59 -27 27 -55 61 -62 75 -8 14 -33 52 -56 83 -24 31
-43 59 -43 63 0 3 -11 18 -25 33 -46 49 -112 192 -128 277 -23 118 -36 377
-23 445 3 14 7 39 10 55 12 81 21 119 53 230 21 75 49 144 74 186 21 36 39 68
39 72 0 4 16 30 35 57 19 27 36 55 37 62 2 7 20 35 41 62 20 27 37 56 37 66 0
9 12 31 28 47 15 17 50 56 77 87 28 31 57 56 65 56 8 0 21 9 28 20 7 12 17 18
22 15 5 -3 18 3 29 14 11 11 36 27 56 35 19 8 35 20 35 26 0 6 11 8 25 6 14
-3 31 2 39 9 7 8 16 12 18 9 5 -4 49 16 141 62 16 8 37 14 46 14 10 0 21 3 25
8 4 4 29 8 54 9 26 1 49 2 52 3 3 1 13 2 23 1 9 -1 17 4 17 13 0 10 9 16 25
16 14 0 25 -5 25 -10 0 -6 13 -4 31 5 23 12 34 13 44 5 9 -8 15 -8 20 0 3 6 9
8 13 6 4 -2 28 -1 55 4 26 4 47 3 47 -2 0 -5 5 -6 12 -2 15 9 138 13 138 5 0
-3 21 -7 47 -9 26 -2 50 -8 54 -14 4 -6 11 -8 16 -5 6 4 26 2 45 -3 19 -6 53
-12 75 -14 22 -2 84 -25 139 -52 54 -26 101 -48 104 -48 25 -3 100 -43 100
-53 0 -7 9 -13 19 -13 11 0 23 -9 26 -21 4 -11 19 -33 33 -48 15 -16 34 -37
43 -49 10 -11 24 -24 32 -28 38 -23 201 -290 222 -364 4 -14 17 -33 29 -43 11
-10 15 -15 7 -11 -10 5 -13 3 -8 -7 70 -161 115 -350 124 -514 5 -93 2 -124
-17 -202 -12 -51 -26 -93 -31 -93 -5 0 -7 -11 -3 -24 4 -17 0 -27 -13 -35 -16
-9 -16 -12 -3 -21 11 -7 11 -10 2 -10 -7 0 -11 -4 -8 -9 3 -4 -6 -21 -19 -37
-14 -16 -23 -35 -20 -41 2 -7 -1 -13 -8 -13 -7 0 -20 -18 -30 -40 -9 -22 -22
-40 -29 -40 -6 0 -9 -3 -5 -6 8 -8 -21 -66 -38 -76 -7 -4 -16 -19 -19 -34 -13
-50 -63 -119 -158 -216 -27 -26 -48 -53 -48 -59 0 -6 -6 -9 -12 -7 -13 5 -48
-33 -48 -51 0 -6 7 -11 15 -11 8 0 15 5 15 10 0 6 9 10 20 10 17 0 19 -4 14
-26 -5 -20 -3 -25 7 -22 8 2 15 17 17 31 4 29 12 33 30 15 9 -9 12 -9 12 0 0
7 8 12 18 12 14 0 14 2 3 9 -8 5 -20 7 -28 4 -15 -6 -16 17 -3 57 9 27 13 19
10 -17 -1 -13 3 -23 9 -23 6 0 11 10 12 23 0 12 3 16 6 10 7 -20 25 -15 21 4
-5 24 32 59 44 41 4 -7 8 -8 8 -3 0 6 14 24 30 42 17 18 30 36 30 41 0 5 11
21 25 36 14 15 23 32 20 37 -4 5 -1 9 5 9 6 0 8 5 5 10 -3 6 -1 10 4 10 6 0
11 7 11 15 0 8 8 15 17 15 13 0 14 3 5 12 -18 18 -14 32 5 17 15 -12 16 -12
10 4 -7 19 12 47 32 47 6 0 11 7 11 15 0 8 5 15 11 15 5 0 7 5 4 10 -3 6 -1
10 5 10 6 0 10 6 8 14 -2 8 7 22 18 33 12 10 30 34 41 54 l19 36 24 -27 25
-27 -22 -33 c-25 -36 -28 -64 -12 -107 l10 -28 16 27 c14 22 22 25 48 21 21
-3 35 0 44 11 7 9 19 16 26 16 34 0 59 72 34 97 -13 13 -9 16 66 42 64 23 110
27 120 11 3 -5 16 -10 29 -10 12 0 32 -11 44 -24 11 -14 40 -30 64 -36 40 -11
41 -13 23 -26 -10 -8 -50 -24 -87 -36 -38 -12 -67 -27 -65 -32 2 -6 -3 -17
-10 -25 -8 -7 -13 -21 -11 -30 4 -21 77 -16 133 8 47 21 105 83 105 112 0 11
4 18 9 15 5 -3 7 -15 4 -25 -11 -43 56 -38 76 5 17 39 32 18 38 -55 6 -64 23
-85 23 -28 0 18 5 38 11 44 11 11 2 63 -12 63 -5 0 -9 8 -9 18 0 10 -3 22 -7
25 -3 4 -7 28 -7 54 -1 47 -2 48 -35 53 -40 6 -63 45 -32 53 15 4 18 13 15 53
-2 27 -6 55 -9 62 -6 15 -1 15 60 -4 98 -30 246 7 293 73 39 56 72 159 72 223
l0 61 40 18 c22 10 37 21 33 24 -3 4 -1 7 5 7 16 0 77 58 69 66 -3 3 -16 -1
-29 -9 -44 -29 -112 -21 -123 14 -4 10 -13 19 -21 19 -16 0 -16 0 -18 87 -1
42 2 56 8 45 18 -34 41 -41 48 -14 6 23 -10 82 -22 82 -6 0 -10 5 -10 10 0 17
41 11 67 -10 29 -22 55 -25 85 -9 43 23 32 -18 -12 -43 -17 -9 -30 -14 -30 -9
0 7 -8 7 -52 2 -4 -1 -5 -8 -2 -16 4 -8 1 -15 -6 -15 -6 0 -8 -4 -5 -10 10
-16 22 -12 28 9 3 14 11 18 26 14 27 -7 27 -23 1 -23 -11 0 -20 -5 -20 -11 0
-12 35 -4 68 18 12 7 32 34 44 58 15 30 30 46 47 50 31 8 61 33 61 51 0 16
-61 54 -87 54 -12 0 -26 7 -33 15 -11 13 -10 22 2 48 11 22 14 49 11 84 -5 52
-5 52 31 70 35 16 40 16 84 0 28 -9 48 -12 50 -7 5 12 32 13 32 1 0 -15 43
-21 58 -8 11 8 13 26 9 64 -4 40 -2 53 7 53 37 0 50 67 20 101 -31 34 -9 58
54 59 12 0 22 5 22 12 0 6 7 20 17 30 15 17 15 19 -3 39 -10 12 -31 27 -46 35
-34 18 -37 57 -8 94 11 14 20 39 20 57 0 40 8 45 62 35 66 -13 84 -2 97 58 6
28 11 74 11 102 0 39 6 57 25 80 31 37 41 75 26 99 -6 10 -11 26 -11 34 0 9
-19 24 -45 35 -25 11 -45 23 -45 28 0 5 -11 26 -25 46 -21 31 -22 38 -10 43
23 8 59 94 48 112 -18 29 -60 53 -103 58 l-42 6 47 18 c57 22 77 39 110 95 49
84 24 140 -91 198 -29 14 -68 41 -89 60 -32 30 -36 40 -30 63 9 37 9 37 44 25
94 -33 239 60 185 119 -9 10 -23 19 -29 19 -7 0 -15 7 -19 15 -3 9 -21 25 -41
36 -31 18 -35 26 -35 60 0 41 -18 53 -27 18 -6 -23 -17 -21 -79 19 -42 26 -43
29 -44 79 l0 52 39 -2 c26 -1 50 6 74 23 l34 24 -5 65 c-5 69 -36 124 -74 137
-21 6 -23 27 -5 43 11 8 27 4 68 -19 30 -16 59 -30 65 -30 7 0 26 14 44 30 18
17 35 30 37 30 12 0 32 36 33 56 0 11 -9 29 -21 40 -17 15 -23 16 -41 5 -13
-8 -18 -9 -13 -1 4 6 21 20 39 31 34 21 22 26 -19 7 -19 -8 -31 -8 -50 0 -33
15 -32 28 3 36 15 3 45 22 67 42 l40 36 -55 -6 c-108 -11 -158 32 -110 96 17
24 18 29 6 34 -9 3 -12 12 -9 21 5 14 1 15 -28 8 -19 -4 -44 -7 -56 -6 -14 0
-23 -5 -23 -14 0 -8 -4 -15 -10 -15 -5 0 -10 13 -10 29 0 22 13 43 51 82 38
39 53 62 56 90 3 21 14 46 24 55 11 9 19 20 19 24 0 4 17 25 39 46 27 28 44
57 56 99 9 33 26 85 36 116 25 75 24 86 -12 120 -23 22 -41 29 -71 29 -36 0
-40 -3 -54 -37 -9 -20 -13 -49 -10 -64 7 -35 -46 -122 -69 -113 -11 4 -14 2
-10 -9 4 -9 -2 -17 -17 -21 -28 -7 -288 -8 -288 -1 0 17 31 75 39 75 21 0 11
32 -18 58 l-30 25 36 29 c20 15 39 28 43 28 5 0 17 17 27 38 14 25 37 47 74
67 109 61 50 91 -69 35 -58 -27 -182 -70 -203 -70 -6 0 14 19 43 43 42 33 62
60 96 130 76 156 53 243 -88 325 -89 51 -84 46 -67 78 24 48 29 111 12 144
-22 42 -50 57 -126 69 -56 9 -78 8 -142 -8 -89 -23 -122 -39 -160 -76 -27 -28
-37 -78 -17 -90 5 -3 15 -16 21 -28 10 -18 6 -17 -20 7 -17 17 -31 36 -31 43
0 7 -4 13 -10 13 -17 0 -11 42 8 46 9 3 27 21 40 40 12 18 27 34 32 34 6 0 10
6 10 13 0 13 40 113 53 135 12 18 27 15 21 -5 -5 -16 -4 -16 5 -2 7 12 4 27
-12 60 -24 50 -29 138 -8 163 10 11 10 16 2 16 -7 0 -10 4 -7 9 3 5 -1 11 -9
15 -18 6 -11 29 21 73 31 41 30 48 -2 20 -34 -29 -42 -45 -66 -131 -13 -49
-29 -81 -51 -104 -24 -25 -27 -31 -12 -26 26 9 18 1 -28 -30 -43 -29 -53 -32
-60 -13 -4 9 -7 9 -18 -1 -12 -11 -11 -16 5 -28 16 -11 17 -14 4 -14 -9 0 -23
-11 -32 -25 -9 -14 -21 -23 -27 -20 -5 4 -2 13 7 22 15 15 14 18 -8 35 -12 9
-29 16 -36 13 -7 -3 -15 3 -19 13 -3 9 -15 36 -25 60 -20 46 -18 61 13 125 11
20 15 37 10 37 -5 0 -13 -9 -16 -20 -3 -11 -13 -20 -22 -20 -13 0 -13 3 -3 15
7 9 8 15 2 15 -12 0 -24 -29 -16 -41 3 -5 -2 -9 -10 -9 -9 0 -15 -3 -15 -7 3
-20 -2 -34 -10 -28 -5 3 -12 1 -16 -5 -3 -5 1 -10 9 -10 9 0 16 -4 16 -10 0
-5 -6 -7 -14 -4 -9 3 -17 -3 -21 -15 -3 -12 -11 -21 -16 -21 -6 0 -7 -4 -4
-10 3 -5 -1 -10 -9 -10 -17 0 -22 15 -7 24 4 3 4 31 -1 63 -20 128 -93 190
-213 181 -70 -6 -102 -25 -141 -82 -45 -66 -130 -56 -179 22 -26 40 -30 57
-30 114 0 36 3 69 6 72 3 3 39 12 79 21 41 9 79 20 84 25 5 5 -12 21 -42 40
-58 36 -63 43 -76 123 -8 43 -26 67 -26 33 0 -8 -10 -26 -22 -40 -22 -24 -26
-25 -100 -19 l-77 6 17 29 c9 17 25 34 35 39 9 5 17 17 17 25 0 9 -7 14 -17
12 -12 -2 -17 -11 -15 -23 2 -11 1 -17 -4 -13 -4 4 -15 -2 -25 -14 -11 -11
-19 -19 -19 -16 0 17 33 80 56 108 22 26 25 33 13 41 -11 8 -10 9 6 7 11 -1
31 5 45 15 l24 17 -52 0 c-47 0 -57 -4 -96 -40 -47 -43 -83 -115 -92 -181 -2
-14 -19 -43 -39 -64 -19 -22 -35 -47 -35 -57 0 -10 -5 -18 -11 -18 -9 0 -56
23 -79 38 -3 2 5 12 18 22 26 22 29 35 5 26 -15 -5 -14 -3 2 9 13 10 21 29 22
53 1 20 4 48 8 62 12 46 -77 170 -121 170 -8 0 -14 7 -14 15 0 20 -13 19 -34
-4z m405 -74 c-10 -9 -11 -8 -5 6 3 10 9 15 12 12 3 -3 0 -11 -7 -18z m-985
-139 c4 -6 -1 -17 -11 -24 -10 -8 -31 -35 -46 -60 l-27 -47 -16 31 c-22 42
-20 51 11 84 28 29 76 38 89 16z m119 -124 c14 -15 25 -33 25 -40 0 -21 -19
-26 -36 -10 -8 9 -12 16 -7 17 4 0 -2 4 -14 9 -26 11 -32 50 -8 50 9 0 27 -12
40 -26z m945 15 c0 -8 5 -8 15 1 8 7 15 8 15 2 0 -5 -15 -15 -32 -22 -18 -6
-41 -16 -50 -21 -10 -5 -27 -9 -38 -9 -17 0 -19 3 -8 19 21 34 98 57 98 30z
m188 -61 c2 -12 -6 -19 -31 -23 -19 -4 -43 -5 -53 -3 -15 2 -12 8 16 26 39 25
63 25 68 0z m-584 -50 c-3 -4 -1 -8 5 -8 5 0 11 6 14 13 3 9 7 9 19 -1 19 -16
29 -50 17 -58 -5 -3 -7 -9 -4 -14 6 -10 -52 -80 -66 -80 -6 0 -16 6 -23 13
-12 10 -12 15 2 31 13 15 14 18 2 11 -11 -6 -10 -3 3 12 9 11 17 25 17 31 0 6
6 9 14 6 8 -3 17 -1 20 4 3 6 -5 13 -18 16 -19 5 -22 11 -18 32 3 18 7 22 13
13 4 -7 5 -17 3 -21z m-1554 -19 c0 -5 -4 -9 -10 -9 -5 0 -10 7 -10 16 0 8 5
12 10 9 6 -3 10 -10 10 -16z m1950 -47 c0 -103 39 -212 93 -263 25 -23 20 -23
-85 -7 -88 14 -86 12 -89 108 -1 36 -8 93 -17 127 -8 34 -12 68 -10 75 4 8 25
14 57 15 l51 2 0 -57z m-160 29 c0 -10 6 -24 13 -30 22 -18 39 -89 32 -132 -4
-22 -11 -37 -15 -34 -5 3 -11 -4 -15 -15 -3 -11 -13 -20 -21 -20 -8 0 -17 -6
-20 -14 -3 -8 -14 -16 -25 -19 -14 -4 -19 0 -19 15 0 11 5 18 13 15 16 -6 47
11 47 25 0 6 7 16 16 23 22 15 12 75 -16 100 -20 18 -26 58 -14 89 8 22 24 20
24 -3z m-1117 -68 c-3 -18 -9 -33 -14 -33 -12 0 -11 13 1 46 13 34 19 28 13
-13z m939 -155 c-7 -7 -12 -8 -12 -2 0 14 12 26 19 19 2 -3 -1 -11 -7 -17z
m-1502 -43 c0 -14 -4 -25 -10 -25 -11 0 -14 33 -3 43 11 11 13 8 13 -18z
m2318 -5 c17 -11 32 -23 32 -28 0 -4 -19 -16 -41 -26 -34 -15 -43 -16 -50 -5
-5 8 -6 21 -3 29 4 8 9 23 11 33 7 22 11 21 51 -3z m-2846 -54 l-19 -57 -17
25 c-22 35 -21 42 14 63 17 9 30 22 30 27 0 5 2 7 6 4 3 -3 -4 -31 -14 -62z
m2048 44 c13 -24 2 -50 -11 -29 -9 15 -12 49 -4 49 2 0 9 -9 15 -20z m-1866
-9 c16 -18 16 -19 -9 -23 -21 -4 -25 -2 -25 18 0 29 11 30 34 5z m2934 -93
c-2 -31 1 -42 10 -40 7 1 15 -5 18 -13 4 -10 13 -13 25 -10 13 5 19 1 19 -10
0 -9 -9 -19 -20 -22 -11 -3 -20 -8 -20 -12 1 -20 14 -51 22 -51 5 0 7 9 3 19
-3 11 -1 22 5 26 5 3 10 2 10 -4 0 -5 7 -11 15 -13 12 -2 10 -9 -9 -31 -29
-34 -41 -30 -50 16 -4 22 -15 39 -31 47 -14 7 -25 20 -25 27 0 8 -4 11 -10 8
-6 -3 -7 1 -4 9 4 9 1 16 -6 16 -10 0 -10 3 0 15 7 8 16 12 21 9 5 -3 9 9 9
25 0 17 5 31 10 31 6 0 9 -19 8 -42z m-2873 -18 c-3 -5 -15 -10 -25 -10 -10 0
-22 5 -25 10 -4 6 7 10 25 10 18 0 29 -4 25 -10z m3061 -155 c-9 -14 -21 -25
-27 -25 -12 0 -3 17 20 41 23 23 27 14 7 -16z m-3894 -26 c19 -10 18 -12 -14
-45 -43 -43 -78 -112 -80 -158 -1 -20 -2 -36 -3 -36 -1 0 -16 5 -33 11 -29 10
-31 14 -37 74 -6 49 -3 70 10 99 26 55 105 83 157 55z m188 -5 c0 -8 -5 -12
-10 -9 -6 4 -8 11 -5 16 9 14 15 11 15 -7z m3560 -1 c-1 -41 -30 -73 -30 -33
0 11 -6 20 -12 21 -7 0 -4 4 7 9 26 11 35 12 35 3z m102 -35 c-7 -7 -12 -8
-12 -2 0 14 12 26 19 19 2 -3 -1 -11 -7 -17z m-3745 -70 c-3 -8 -6 -5 -6 6 -1
11 2 17 5 13 3 -3 4 -12 1 -19z m3607 -49 c-9 -10 -26 -19 -38 -19 -17 0 -15
4 14 29 37 31 55 24 24 -10z m624 -26 l3 -32 -60 27 c-33 14 -57 30 -54 35 2
4 28 7 56 5 50 -3 52 -4 55 -35z m-250 -63 c20 -12 51 -31 68 -43 18 -12 40
-27 50 -34 17 -10 16 -13 -20 -28 -21 -9 -44 -14 -51 -11 -13 4 -105 119 -105
130 0 11 21 6 58 -14z m-244 -26 c22 -21 20 -34 -4 -34 -11 0 -20 5 -20 10 0
6 -7 10 -15 10 -21 0 -19 18 3 23 9 3 18 5 19 6 1 0 9 -6 17 -15z m96 -5 c0
-5 -7 -9 -15 -9 -15 0 -20 12 -9 23 8 8 24 -1 24 -14z m50 -55 c0 -12 -4 -13
-21 -3 -17 9 -19 13 -8 19 16 11 29 4 29 -16z m-4124 -94 c108 -29 110 -31 88
-65 -15 -24 -20 -25 -28 -13 -8 14 -12 13 -26 -5 -15 -18 -21 -19 -63 -9 -25
7 -60 12 -77 12 -30 0 -31 1 -25 33 5 24 1 39 -14 59 -29 37 -27 39 22 23 23
-8 78 -24 123 -35z m4170 13 c-10 -10 -19 5 -10 18 6 11 8 11 12 0 2 -7 1 -15
-2 -18z m311 5 c59 -33 73 -49 73 -80 0 -36 -15 -66 -48 -95 -14 -13 -20 -23
-13 -23 7 0 5 -9 -6 -27 l-17 -26 -7 24 c-4 13 -8 42 -8 64 -1 22 -7 51 -14
65 -11 21 -18 24 -51 22 l-39 -4 44 51 c24 28 45 51 46 51 1 0 19 -10 40 -22z
m-4987 -249 c0 -6 -4 -7 -10 -4 -5 3 -10 11 -10 16 0 6 5 7 10 4 6 -3 10 -11
10 -16z m-57 -144 c6 -33 -13 -32 -37 1 -15 21 -16 28 -5 35 17 10 36 -5 42
-36z m5277 -20 c0 -2 -10 -9 -22 -15 -22 -11 -22 -10 -4 4 21 17 26 19 26 11z
m-306 -21 c25 -9 19 -24 -9 -24 -16 0 -25 6 -25 15 0 16 9 19 34 9z m246 -1
c-1 -18 -19 -35 -29 -28 -9 5 -9 10 0 21 12 15 29 19 29 7z m-2301 -842 c18
-5 36 -10 40 -9 3 0 9 -1 14 -2 4 -1 10 -3 15 -4 21 -6 62 -30 62 -38 0 -4 4
-8 9 -8 21 0 136 -76 176 -117 24 -24 48 -43 54 -43 18 0 115 -96 156 -154 22
-32 53 -74 69 -94 15 -20 39 -58 52 -83 13 -26 29 -53 36 -60 19 -20 52 -126
54 -173 1 -23 9 -68 17 -101 32 -129 36 -153 50 -247 13 -95 13 -97 -7 -102
-14 -4 -29 3 -46 20 l-25 25 20 17 c30 24 35 44 19 80 -9 22 -18 30 -29 26
-11 -5 -14 -2 -9 10 3 9 1 16 -5 16 -6 0 -11 7 -11 15 0 8 -5 15 -11 15 -6 0
-27 18 -47 41 -76 84 -220 119 -350 85 -63 -17 -232 -85 -322 -129 -69 -34
-81 -53 -59 -93 15 -29 46 -31 97 -5 48 24 207 83 300 111 104 32 196 25 286
-20 64 -31 89 -58 44 -46 -17 4 -32 -4 -60 -31 -33 -32 -38 -34 -38 -17 0 36
-12 34 -41 -6 -16 -22 -31 -40 -34 -40 -2 0 5 19 15 43 31 68 25 86 -12 39
-33 -41 -55 -55 -44 -27 3 9 0 15 -9 15 -7 0 -16 -8 -19 -18 -3 -10 -19 -25
-35 -35 l-28 -17 -7 38 c-3 20 -6 50 -6 67 l0 29 -20 -39 c-11 -22 -20 -44
-20 -50 0 -23 -26 -43 -63 -49 -35 -6 -39 -5 -45 16 l-6 23 -6 -25 c-4 -19
-15 -27 -45 -34 -53 -12 -201 -108 -208 -135 -8 -33 9 -34 46 -1 66 57 49 30
-23 -39 -59 -57 -74 -77 -80 -110 -11 -59 3 -67 91 -53 64 9 78 8 152 -14 44
-13 89 -24 99 -24 10 0 18 -7 19 -17 0 -14 2 -13 9 5 13 31 25 28 47 -15 23
-43 44 -55 36 -21 -4 20 -3 21 9 7 20 -25 48 -20 48 9 0 17 4 23 15 18 9 -3
15 0 15 9 0 18 30 20 31 3 0 -10 2 -10 5 -1 4 9 13 9 31 2 24 -9 25 -8 19 16
-10 41 32 33 79 -15 21 -22 47 -40 56 -40 21 0 31 24 16 39 -19 19 1 24 55 13
30 -6 57 -7 62 -2 15 15 23 84 12 103 -9 15 -6 22 13 38 13 10 27 19 31 19 19
0 25 -198 10 -300 -11 -74 -52 -243 -60 -250 -7 -7 -60 -166 -60 -182 0 -7
-18 -49 -39 -94 -22 -45 -49 -104 -61 -133 -13 -28 -26 -51 -30 -51 -16 0 -70
35 -70 45 0 6 -48 25 -106 44 -57 19 -117 40 -131 48 -25 13 -233 77 -297 92
-26 6 -27 8 -12 20 20 17 20 43 1 108 -17 58 -29 70 -73 79 -40 8 -45 -17 -8
-34 14 -6 26 -21 28 -34 2 -15 9 -22 21 -22 13 1 17 -6 17 -30 0 -39 -25 -76
-50 -76 -17 0 -18 2 -4 28 19 38 18 48 -12 71 -32 25 -74 27 -117 5 -39 -20
-97 -73 -97 -90 0 -7 -20 -13 -50 -16 -47 -3 -53 0 -86 33 -51 53 -105 75
-152 63 -30 -7 -38 -14 -40 -35 -4 -37 45 -62 103 -53 30 4 44 2 53 -9 11 -13
1 -17 -70 -27 -72 -10 -88 -10 -121 4 -55 24 -65 54 -34 102 13 22 34 48 46
58 21 19 29 46 13 46 -18 0 -90 -87 -95 -115 -3 -16 1 -48 8 -70 8 -22 11 -43
7 -46 -4 -4 -38 -17 -77 -29 -131 -43 -246 -104 -340 -182 -68 -57 -110 -86
-116 -82 -4 2 -17 28 -27 57 -11 28 -36 86 -56 128 -20 41 -39 91 -42 110 -4
19 -19 75 -34 124 -37 120 -58 254 -65 401 l-6 122 36 6 c40 8 78 0 70 -15
-10 -15 1 -11 55 21 53 31 84 38 95 20 4 -6 1 -18 -6 -26 -24 -30 1 -25 42 7
l42 33 -6 -32 c-5 -26 -3 -32 11 -32 10 0 24 6 31 13 11 10 12 6 7 -23 -6 -34
-6 -35 10 -12 19 25 34 29 34 7 0 -9 6 -12 16 -8 15 5 16 1 10 -31 -5 -26 -4
-36 3 -31 6 3 11 14 11 24 0 29 34 51 94 61 31 5 84 25 121 45 63 36 66 36
127 27 35 -5 64 -8 66 -7 6 6 -36 81 -53 95 -9 7 -23 27 -32 44 -8 17 -25 41
-36 54 -28 30 -12 28 27 -4 27 -24 31 -25 34 -9 5 23 -91 121 -140 142 -41 18
-53 41 -44 78 11 42 -13 37 -25 -5 -7 -22 -16 -40 -20 -40 -11 0 -29 35 -29
57 0 29 -22 99 -27 86 -9 -24 -23 -13 -23 17 0 38 -18 40 -22 3 -5 -42 -35
-42 -43 -1 -12 62 -15 66 -35 61 -16 -4 -20 0 -20 21 0 31 -4 32 -31 5 -16
-16 -20 -33 -20 -75 0 -30 -2 -54 -4 -54 -2 0 -12 16 -24 35 -16 28 -27 35
-51 35 -16 0 -39 -8 -50 -17 -21 -18 -27 -67 -10 -78 15 -9 12 -22 -7 -29 -10
-4 -20 -1 -25 8 -9 16 -35 11 -53 -9 -5 -7 -18 -15 -27 -18 -15 -5 -17 -1 -12
31 3 20 12 60 20 87 27 86 24 81 34 65 7 -11 12 -8 26 16 26 44 158 101 252
108 87 7 118 -4 182 -64 63 -59 141 -120 154 -121 26 -2 51 -9 72 -19 27 -15
132 10 175 41 28 20 28 21 14 50 -18 34 -15 33 -60 12 -35 -17 -35 -17 -80 15
-25 18 -49 32 -54 32 -5 0 -14 7 -22 16 -21 26 -154 131 -187 148 -16 8 -58
18 -93 21 -59 6 -71 4 -157 -34 -51 -22 -114 -55 -140 -74 -73 -53 -78 -54
-55 -16 12 19 40 70 62 115 47 96 158 264 209 318 30 31 137 125 188 165 27
21 96 51 104 46 6 -3 10 1 10 9 0 22 119 80 249 122 78 26 129 36 195 40 49 2
90 5 92 7 6 6 233 -12 263 -22z m2501 -485 c0 -3 -4 -8 -10 -11 -5 -3 -10 -1
-10 4 0 6 5 11 10 11 6 0 10 -2 10 -4z m-5805 -91 c30 -30 32 -71 5 -100 -30
-31 -100 -20 -143 24 l-32 31 21 21 c20 19 85 48 112 49 7 0 24 -11 37 -25z
m5993 -243 c2 -7 -2 -10 -12 -6 -9 3 -16 11 -16 16 0 13 23 5 28 -10z m-5974
-206 c18 -89 19 -86 -23 -86 -49 0 -77 24 -84 72 -5 35 -4 37 26 40 52 5 77
-3 81 -26z m3426 -206 c0 -5 -2 -10 -4 -10 -3 0 -8 5 -11 10 -3 6 -1 10 4 10
6 0 11 -4 11 -10z m-1592 -36 c-10 -10 -28 6 -28 24 0 15 1 15 17 -1 9 -9 14
-19 11 -23z m1519 1 c-4 -8 -17 -15 -29 -14 l-23 0 23 11 c12 6 22 16 22 21 0
6 3 8 6 4 4 -3 4 -13 1 -22z m-1522 -71 c31 -29 29 -38 -8 -29 -16 4 -27 15
-30 31 -5 31 3 30 38 -2z m648 -28 c32 -13 87 -68 87 -86 0 -5 -15 -9 -32 -8
-18 0 -50 -7 -72 -16 -43 -18 -134 -23 -103 -5 21 12 57 81 57 109 0 24 18 25
63 6z m1192 -31 c30 -19 55 -39 55 -45 0 -5 -12 -12 -27 -16 -16 -3 -51 -16
-80 -30 -37 -17 -68 -24 -110 -23 -49 0 -54 2 -33 10 50 20 98 61 116 99 10
22 20 40 22 40 2 0 27 -16 57 -35z m-1855 5 c9 -17 8 -20 -13 -20 -30 0 -40
10 -26 27 16 18 26 16 39 -7z m4082 -13 c-12 -13 -22 -35 -22 -50 0 -15 -4
-27 -10 -27 -5 0 -10 7 -10 15 0 8 -4 15 -10 15 -14 0 -12 36 3 48 11 9 37 18
61 21 5 0 0 -9 -12 -22z m-1862 -11 c0 -3 -4 -8 -10 -11 -5 -3 -10 -1 -10 4 0
6 5 11 10 11 6 0 10 -2 10 -4z m-795 -36 c-3 -5 -11 -10 -16 -10 -6 0 -7 5 -4
10 3 6 11 10 16 10 6 0 7 -4 4 -10z m-1418 -30 c2 0 3 -6 3 -14 0 -15 -45 -30
-60 -21 -6 4 -10 17 -10 30 0 22 2 23 32 14 18 -5 34 -9 35 -9z m4113 -171 c0
-6 -4 -7 -10 -4 -5 3 -10 11 -10 16 0 6 5 7 10 4 6 -3 10 -11 10 -16z m100
-300 c0 -62 -2 -70 -17 -67 -35 6 -27 138 8 138 5 0 9 -32 9 -71z m-2937 -196
c-7 -2 -21 -2 -30 0 -10 3 -4 5 12 5 17 0 24 -2 18 -5z m-3073 -173 c0 -5 -5
-10 -11 -10 -5 0 -7 5 -4 10 3 6 8 10 11 10 2 0 4 -4 4 -10z m210 -470 c11
-11 22 -31 26 -45 4 -15 17 -30 29 -35 19 -7 25 -19 31 -66 7 -63 5 -67 -58
-84 -50 -14 -71 -2 -108 63 -53 93 -31 182 48 186 6 1 21 -8 32 -19z m-128
-60 c-2 -21 4 -55 12 -74 22 -54 8 -43 -16 12 -21 45 -25 83 -12 104 11 17 18
-2 16 -42z m384 -202 c-26 -93 -36 -136 -36 -163 0 -40 -6 -46 -37 -34 -36 14
-71 50 -66 68 2 9 22 26 44 39 26 15 47 38 61 68 23 46 45 60 34 22z m4921 0
c-3 -8 -6 -5 -6 6 -1 11 2 17 5 13 3 -3 4 -12 1 -19z m-186 -136 c-7 -2 -18 1
-23 6 -8 8 -4 9 13 5 13 -4 18 -8 10 -11z m-4891 -2 c0 -5 -10 -10 -22 -9 -22
0 -22 1 -3 9 11 5 21 9 23 9 1 1 2 -3 2 -9z m5030 -44 c0 -3 -4 -8 -10 -11 -5
-3 -10 -1 -10 4 0 6 5 11 10 11 6 0 10 -2 10 -4z m-10 -36 c0 -5 -5 -10 -11
-10 -5 0 -7 5 -4 10 3 6 8 10 11 10 2 0 4 -4 4 -10z m-12 -40 c3 -9 -1 -11
-12 -7 -12 5 -19 0 -26 -17 -13 -35 -28 -40 -22 -8 7 44 49 66 60 32z m48 -3
c8 3 14 0 14 -6 0 -13 -36 -15 -44 -2 -3 4 -2 11 2 15 3 4 8 3 10 -3 2 -5 10
-7 18 -4z m-4942 -13 c20 -8 21 -28 1 -44 -8 -7 -15 -21 -15 -32 0 -22 -28
-68 -41 -68 -17 0 -9 85 11 118 21 35 21 35 44 26z m109 -56 c-8 -46 -13 -48
-13 -5 0 21 4 37 10 37 5 0 7 -14 3 -32z m4662 12 c4 -6 12 -10 18 -8 18 3 61
-13 69 -26 13 -20 8 -53 -10 -69 -30 -27 -181 -69 -229 -64 -63 7 -76 21 -68
76 5 37 4 44 -6 34 -16 -16 -32 -17 -27 -1 2 6 33 20 69 30 127 38 174 45 184
28z m-315 -80 c0 -16 -2 -30 -5 -30 -9 0 -26 41 -20 50 12 20 25 9 25 -20z
m-4022 -67 c-3 -19 -44 -27 -54 -12 -9 15 6 29 32 29 19 0 25 -5 22 -17z
m4012 -24 c0 -18 -2 -19 -15 -9 -8 7 -15 16 -15 21 0 5 7 9 15 9 9 0 15 -9 15
-21z m51 -65 c12 -14 11 -16 -5 -13 -11 2 -21 10 -24 17 -5 17 13 15 29 -4z
m-16 -75 c9 -13 -34 -30 -68 -27 -19 2 -33 9 -35 19 -2 12 8 15 48 16 28 0 53
-3 55 -8z m-4280 -126 c42 -20 44 -50 5 -70 -22 -11 -27 -10 -42 8 -18 21 -24
60 -11 72 9 9 7 9 48 -10z m4230 -43 c-3 -5 -13 -10 -21 -10 -8 0 -14 5 -14
10 0 6 9 10 21 10 11 0 17 -4 14 -10z m-3371 -77 c7 -18 -11 -83 -24 -83 -4 0
-10 16 -12 35 -6 52 21 88 36 48z m-128 -111 c-13 -12 -18 9 -10 45 l8 38 4
-39 c2 -21 1 -41 -2 -44z m3534 38 c0 -5 -10 -15 -22 -21 -23 -12 -23 -12 -4
10 21 23 26 26 26 11z m-490 -10 c0 -5 -5 -10 -11 -10 -5 0 -7 5 -4 10 3 6 8
10 11 10 2 0 4 -4 4 -10z m-3450 -52 c0 -16 -3 -19 -11 -11 -6 6 -8 16 -5 22
11 17 16 13 16 -11z"/>
<path d="M5420 6060 c0 -5 5 -10 11 -10 5 0 7 5 4 10 -3 6 -8 10 -11 10 -2 0
-4 -4 -4 -10z"/>
<path d="M6147 4913 c-4 -3 -7 -11 -7 -17 0 -6 5 -5 12 2 6 6 9 14 7 17 -3 3
-9 2 -12 -2z"/>
<path d="M5774 4465 c-32 -32 -29 -69 5 -73 28 -4 39 5 50 46 8 27 7 34 -10
42 -15 9 -24 6 -45 -15z"/>
<path d="M4927 4145 c-51 -14 -90 -41 -81 -56 3 -5 12 -2 20 6 9 8 26 15 39
15 13 0 35 5 49 11 18 8 33 9 55 1 19 -7 40 -8 54 -3 21 9 20 10 -15 25 -44
19 -56 19 -121 1z"/>
<path d="M5070 4095 c-9 -11 -34 -15 -91 -15 -43 0 -80 -4 -83 -9 -3 -4 36
-11 86 -15 92 -6 118 0 118 30 0 20 -16 25 -30 9z"/>
<path d="M6170 8720 c-25 -6 -25 -6 -3 -12 13 -3 26 -2 29 4 9 14 2 16 -26 8z"/>
<path d="M6080 8706 c0 -9 5 -16 10 -16 6 0 10 4 10 9 0 6 -4 13 -10 16 -5 3
-10 -1 -10 -9z"/>
<path d="M4146 8351 c-4 -7 -5 -15 -2 -18 9 -9 19 4 14 18 -4 11 -6 11 -12 0z"/>
<path d="M4140 8309 c0 -5 5 -7 10 -4 6 3 10 8 10 11 0 2 -4 4 -10 4 -5 0 -10
-5 -10 -11z"/>
<path d="M6970 8309 c0 -5 5 -7 10 -4 6 3 10 8 10 11 0 2 -4 4 -10 4 -5 0 -10
-5 -10 -11z"/>
<path d="M6925 8248 c-5 -5 -19 -16 -30 -24 -11 -9 -15 -13 -9 -10 7 3 14 0
16 -7 6 -14 -6 -110 -17 -144 -6 -17 -3 -23 9 -23 11 0 18 13 22 40 4 22 10
40 14 40 4 0 8 11 8 25 0 13 -4 22 -9 20 -10 -7 -6 56 5 73 10 16 4 23 -9 10z"/>
<path d="M7036 8162 c5 -25 2 -30 -26 -42 -46 -19 -68 -59 -61 -111 7 -48 31
-67 31 -24 0 15 4 24 10 20 6 -3 15 6 21 22 10 27 11 28 22 7 7 -12 18 -19 25
-17 10 4 8 8 -5 18 -15 11 -15 15 -4 29 7 9 24 16 37 16 38 0 38 19 0 41 -25
15 -36 28 -36 45 0 13 -4 24 -10 24 -5 0 -7 -13 -4 -28z m-32 -84 c-8 -28 -23
-48 -35 -48 -14 0 -11 18 7 45 20 31 38 32 28 3z"/>
<path d="M7340 7971 c0 -5 18 -9 40 -9 22 0 40 3 40 7 0 5 -18 9 -40 9 -22 0
-40 -3 -40 -7z"/>
<path d="M7970 7009 c0 -5 5 -7 10 -4 6 3 10 8 10 11 0 2 -4 4 -10 4 -5 0 -10
-5 -10 -11z"/>
<path d="M8020 6939 c0 -5 5 -7 10 -4 6 3 10 8 10 11 0 2 -4 4 -10 4 -5 0 -10
-5 -10 -11z"/>
<path d="M7665 2959 c-4 -6 -5 -12 -2 -15 2 -3 7 2 10 11 7 17 1 20 -8 4z"/>
<path d="M5653 2618 c-32 -36 -37 -74 -12 -92 12 -8 29 -12 38 -9 22 8 51 34
51 46 0 6 -8 3 -18 -6 -23 -21 -36 -21 -53 -1 -11 14 -10 19 10 35 17 14 28
16 41 9 26 -14 30 -13 23 8 -14 38 -50 42 -80 10z"/>
<path d="M4281 2534 c0 -11 3 -14 6 -6 3 7 2 16 -1 19 -3 4 -6 -2 -5 -13z"/>
<path d="M2496 2531 c-4 -5 -3 -16 0 -25 5 -12 2 -15 -10 -10 -19 7 -21 -7 -4
-24 13 -13 -2 -17 -18 -4 -5 4 -2 -1 7 -12 19 -20 44 -13 35 11 -3 8 -1 11 4
8 5 -3 9 9 8 30 -1 34 -11 45 -22 26z"/>
<path d="M5520 2480 c0 -5 6 -10 13 -10 8 0 20 -11 27 -25 7 -14 15 -23 18
-21 7 8 -32 66 -45 66 -7 0 -13 -4 -13 -10z"/>
<path d="M5384 2450 c-21 -14 -40 -39 -54 -75 -28 -69 -21 -116 24 -161 29
-29 36 -32 81 -27 59 6 148 55 164 90 14 31 13 71 -3 108 -12 28 -13 27 -8
-27 6 -72 -17 -106 -88 -137 -57 -25 -80 -21 -110 16 -42 54 -14 147 55 180
22 10 35 23 33 33 -5 23 -58 23 -94 0z"/>
<path d="M2460 2430 c0 -5 5 -10 10 -10 6 0 10 5 10 10 0 6 -4 10 -10 10 -5 0
-10 -4 -10 -10z"/>
<path d="M2810 2430 c-12 -8 -10 -10 8 -10 13 0 20 4 17 10 -7 12 -6 12 -25 0z"/>
<path d="M7270 2415 c-7 -9 -11 -18 -8 -20 3 -3 11 1 18 10 7 9 11 18 8 20 -3
3 -11 -1 -18 -10z"/>
<path d="M2410 2394 c-15 -17 -1 -24 51 -24 56 0 71 13 31 28 -34 13 -70 11
-82 -4z"/>
<path d="M7194 2375 c-33 -29 -28 -31 22 -10 20 8 33 19 29 25 -9 15 -19 12
-51 -15z"/>
<path d="M5272 2184 c2 -21 8 -29 21 -27 12 0 16 -4 13 -12 -7 -18 47 -30 71
-16 16 10 17 10 1 11 -26 0 -87 33 -88 47 0 6 -5 15 -11 18 -7 5 -9 -3 -7 -21z"/>
<path d="M5207 2129 c4 -13 8 -18 11 -10 2 7 -1 18 -6 23 -8 8 -9 4 -5 -13z"/>
<path d="M5880 1570 c0 -20 -1 -20 -25 -4 -14 9 -28 14 -32 10 -3 -3 -1 -6 5
-6 7 0 12 -11 12 -25 0 -30 7 -31 38 -6 22 20 30 51 12 51 -5 0 -10 -9 -10
-20z"/>
</g>
</svg>
