<?xml version="1.0" standalone="no"?>
<!DOCTYPE svg PUBLIC "-//W3C//DTD SVG 20010904//EN"
 "http://www.w3.org/TR/2001/REC-SVG-20010904/DTD/svg10.dtd">
<svg version="1.0" xmlns="http://www.w3.org/2000/svg"
 width="840.000000pt" height="1173.000000pt" viewBox="0 0 840.000000 1173.000000"
 preserveAspectRatio="xMidYMid meet">

<g transform="translate(0.000000,1173.000000) scale(0.100000,-0.100000)"
fill="#00000" stroke="none">

<path d="M5016 11285 c-229 -47 -380 -129 -490 -264 l-28 -34 -61 23 c-122 45
-164 50 -397 54 -176 3 -238 8 -284 21 -82 24 -141 16 -314 -45 -127 -44 -148
-48 -188 -41 -62 12 -152 -12 -219 -58 -19 -14 -46 -21 -76 -21 -51 0 -102
-30 -151 -89 -26 -30 -30 -31 -103 -31 -42 0 -90 -6 -108 -14 -41 -17 -82 -63
-91 -99 -6 -27 -10 -28 -44 -23 -34 5 -41 2 -97 -50 -33 -30 -121 -108 -195
-174 -260 -228 -495 -486 -533 -584 -24 -65 -41 -296 -33 -461 10 -198 53
-346 147 -493 46 -73 46 -95 1 -224 -74 -206 -101 -277 -151 -386 -26 -59 -56
-129 -65 -157 -10 -27 -32 -79 -49 -115 -29 -57 -36 -65 -68 -72 -103 -21
-356 -146 -443 -217 -75 -63 -104 -105 -179 -260 -89 -185 -105 -232 -122
-365 -20 -148 -19 -239 6 -403 18 -122 25 -149 68 -238 57 -121 179 -303 228
-344 64 -53 275 -140 438 -181 193 -49 214 -51 376 -42 125 7 141 10 201 40
81 40 332 269 406 370 60 83 107 166 116 206 6 23 11 27 29 21 12 -3 69 -11
127 -16 58 -6 110 -12 116 -14 44 -14 97 -298 62 -333 -7 -7 -8 -12 -2 -12 5
0 11 -31 12 -68 3 -63 0 -74 -40 -152 -69 -135 -171 -234 -370 -360 -286 -182
-401 -232 -559 -243 -89 -6 -270 -63 -404 -127 -97 -46 -214 -149 -281 -246
l-38 -56 -7 -156 c-4 -87 -17 -222 -28 -302 -13 -91 -20 -200 -21 -292 0 -126
-5 -170 -35 -325 -20 -98 -42 -200 -50 -228 -8 -27 -19 -77 -24 -110 -9 -58
-20 -106 -76 -360 -55 -245 -57 -257 -51 -350 7 -103 61 -354 101 -465 32 -88
96 -218 135 -275 42 -61 136 -129 264 -190 119 -58 156 -89 184 -155 26 -62
104 -193 164 -276 55 -77 162 -178 409 -385 151 -128 339 -244 443 -274 90
-26 272 -16 441 24 72 17 202 46 290 66 261 57 769 202 877 249 70 31 507 180
633 216 320 91 639 225 818 343 90 59 157 140 211 252 36 74 106 301 131 425
9 41 22 95 30 120 8 25 22 86 31 135 9 50 22 97 30 106 18 20 64 39 169 72 44
14 131 43 193 66 l112 40 34 -35 c34 -35 34 -35 82 -23 140 34 327 164 619
429 198 180 270 259 305 331 16 35 30 70 30 78 0 20 -98 238 -133 294 -16 26
-38 71 -49 100 -23 59 -168 483 -168 490 0 3 36 -19 80 -48 214 -141 363 -106
510 117 87 133 103 190 97 347 -4 121 -6 130 -49 231 -50 120 -116 236 -163
289 -18 20 -40 52 -50 71 -25 47 -29 27 -16 -77 19 -152 14 -260 -13 -319 -30
-64 -94 -120 -153 -132 -59 -13 -154 1 -237 34 -151 60 -339 326 -419 594 -55
182 -62 243 -62 545 1 232 5 307 23 435 23 165 65 386 106 565 31 130 69 388
91 605 26 266 46 894 35 1097 -34 595 -178 1067 -455 1488 -279 426 -643 716
-1085 867 -122 41 -129 42 -270 45 -96 1 -168 -3 -214 -12z m475 -68 c424
-143 781 -427 1055 -837 280 -421 428 -901 465 -1510 11 -197 7 -383 -17 -705
-8 -110 -17 -247 -20 -305 -5 -119 -37 -396 -59 -515 -8 -44 -35 -170 -59
-280 -24 -110 -49 -238 -55 -285 -7 -47 -18 -132 -26 -190 -41 -310 -40 -590
5 -808 28 -140 53 -210 125 -357 105 -216 237 -355 442 -470 48 -27 94 -55
101 -62 7 -7 45 -22 83 -34 76 -23 136 -21 198 9 77 36 123 176 103 315 -6 39
-9 73 -7 75 8 8 69 -171 82 -243 17 -92 12 -166 -16 -247 -25 -73 -64 -130
-143 -208 -86 -84 -108 -95 -198 -95 -67 0 -84 4 -152 38 -75 36 -198 137
-198 162 0 6 -16 30 -35 52 -21 25 -47 76 -68 134 -105 293 -249 565 -514 973
-38 57 -111 154 -163 216 -93 110 -160 163 -272 216 -21 10 -38 21 -38 25 0
18 144 426 245 695 145 383 326 913 324 949 0 5 -44 -118 -98 -275 -54 -157
-162 -456 -241 -665 -78 -209 -165 -451 -194 -538 -50 -153 -52 -157 -76 -152
-14 4 -52 9 -85 12 -33 3 -68 12 -77 21 -10 8 -18 11 -18 5 0 -14 -198 -25
-321 -17 -103 7 -104 8 -137 43 -90 97 -132 228 -132 410 0 137 4 154 81 334
201 470 373 1079 430 1526 l18 146 -5 -165 c-5 -179 -21 -346 -59 -648 -17
-132 -22 -199 -15 -210 7 -13 9 -4 10 34 0 27 13 129 30 225 56 328 64 429 64
754 0 480 -42 724 -198 1148 -20 54 -36 110 -36 125 0 53 -20 102 -48 116 -15
8 -36 28 -47 45 -11 16 -29 35 -40 41 -27 15 -143 168 -180 238 -28 52 -39 62
-105 92 -8 4 -33 33 -56 66 -48 71 -88 99 -157 114 -71 15 -94 30 -45 30 59 0
185 -45 283 -101 351 -201 596 -518 749 -967 163 -478 205 -984 130 -1582 -24
-193 -57 -336 -165 -713 -54 -191 -106 -386 -114 -434 -20 -115 -20 -351 1
-450 16 -78 53 -188 60 -180 3 2 0 17 -6 32 -6 15 -19 82 -30 149 -27 164 -27
397 0 516 19 88 104 374 138 470 32 88 119 482 141 635 35 247 44 397 38 640
-9 341 -50 592 -147 886 -131 398 -336 702 -616 912 -145 109 -340 198 -486
222 -23 3 -42 14 -52 30 l-16 25 74 0 c142 0 349 -56 516 -140 113 -57 278
-170 367 -253 126 -116 140 -126 77 -54 -190 217 -494 394 -776 451 -51 11
-131 16 -235 16 -87 0 -164 4 -172 9 -19 12 8 50 73 100 132 102 266 130 462
96 370 -65 747 -314 1077 -713 391 -472 569 -1015 529 -1614 -15 -224 -55
-472 -98 -623 -4 -14 -3 -17 4 -10 12 11 65 253 81 365 50 355 43 688 -19 956
-85 364 -267 704 -552 1030 -271 310 -601 530 -923 615 -102 27 -291 37 -366
19 -84 -19 -182 -75 -240 -137 -45 -47 -55 -54 -71 -44 -10 6 -29 11 -43 11
-34 0 -32 15 18 95 50 83 102 118 233 160 132 42 223 54 379 51 130 -3 147 -5
246 -39z m-1831 -170 c0 -2 -20 -18 -45 -36 -45 -32 -105 -120 -105 -153 0
-32 14 -19 44 37 45 86 138 153 197 140 38 -8 37 -16 -5 -39 -48 -26 -103 -86
-112 -121 -6 -27 -1 -24 50 32 76 83 141 115 226 111 l63 -3 -57 -39 c-30 -21
-71 -59 -89 -85 -34 -47 -35 -47 -138 -70 -167 -37 -156 -38 -234 13 l-70 45
46 44 c26 24 75 58 109 76 35 17 57 32 49 32 -8 1 2 5 21 9 49 10 50 10 50 7z
m915 -47 c-14 -28 -35 -41 -35 -22 0 9 38 52 46 52 2 0 -2 -13 -11 -30z m-425
-1 c0 -7 10 -9 25 -5 14 4 36 4 50 0 25 -6 25 -6 -14 -34 -21 -16 -42 -33 -45
-39 -4 -5 -21 -20 -38 -32 l-31 -23 24 33 c13 18 42 46 63 62 42 31 38 41 -4
12 -50 -33 -92 -79 -117 -128 -14 -27 -35 -63 -46 -79 l-20 -29 -53 57 c-33
36 -60 56 -75 56 -22 0 -22 0 -3 21 21 23 156 116 189 130 30 12 95 11 95 -2z
m213 -8 c26 -7 47 -18 47 -25 0 -6 -26 -24 -58 -41 -37 -19 -90 -63 -150 -123
-87 -88 -95 -94 -118 -83 -50 22 -21 85 84 182 66 60 122 98 122 81 0 -4 -6
-14 -12 -21 -11 -11 -10 -13 1 -9 25 8 38 37 21 49 -18 12 -14 11 63 -10z
m-398 -17 c-27 -14 -70 -42 -95 -62 -37 -30 -41 -31 -20 -8 41 46 113 96 140
95 20 0 15 -4 -25 -25z m-537 -18 c-25 -19 -50 -48 -57 -64 -9 -22 -24 -33
-59 -44 l-47 -15 66 5 c100 7 143 -21 382 -248 136 -129 297 -344 395 -530 62
-116 78 -164 98 -288 20 -124 32 -548 15 -565 -8 -8 -11 -3 -12 19 0 16 -4 38
-9 49 -6 13 -7 -2 -3 -40 l5 -60 -69 135 c-93 182 -171 305 -260 411 -82 98
-221 228 -271 253 -18 9 -38 29 -44 44 -26 68 -58 158 -58 166 0 4 11 1 25 -8
14 -9 30 -14 35 -11 5 3 30 -16 57 -43 26 -26 75 -68 108 -94 138 -105 271
-291 392 -548 62 -130 73 -132 31 -5 -32 98 -74 174 -160 290 -134 180 -446
485 -496 485 -15 0 -32 22 -71 93 -62 116 -167 254 -256 335 -38 35 -61 62
-52 62 9 0 49 -7 89 -16 40 -9 85 -18 100 -19 40 -4 93 -40 175 -117 71 -67
104 -86 84 -50 -13 25 -108 112 -162 149 -25 17 -68 36 -95 41 -27 6 -74 17
-104 25 -40 11 -67 13 -100 7 -25 -5 -62 -9 -83 -10 l-38 0 32 40 c32 40 160
130 212 149 16 6 40 11 54 11 23 0 17 -8 -53 -76 -61 -58 -75 -77 -64 -84 8
-5 19 -5 25 0 6 5 27 16 46 25 l34 16 -35 -7 -35 -6 35 37 c19 20 49 44 65 52
17 8 42 26 56 40 26 24 66 40 103 42 13 1 5 -10 -26 -33z m1057 -20 l30 -24
-18 -36 c-17 -36 -17 -36 2 -26 11 5 23 19 26 31 10 31 50 42 86 24 34 -18 36
-29 9 -72 -25 -41 -86 -86 -176 -130 -54 -26 -89 -35 -145 -39 l-74 -5 71 38
c78 43 164 103 147 103 -7 0 -15 -5 -18 -10 -4 -6 -59 -36 -123 -66 -97 -46
-121 -53 -139 -45 -13 6 -23 15 -23 20 0 12 210 181 225 181 5 1 22 19 37 40
32 46 42 48 83 16z m-1357 -23 c-18 -15 -57 -47 -85 -71 -57 -47 -69 -43 -26
9 36 43 101 89 125 89 16 0 13 -5 -14 -27z m1237 -3 c-3 -5 -20 -19 -38 -30
l-32 -22 35 31 c35 32 46 38 35 21z m315 -80 c-23 -15 -4 -12 37 5 63 27 117
13 72 -18 -15 -11 -17 -16 -7 -20 10 -4 9 -9 -4 -20 -10 -8 -18 -17 -18 -21 0
-4 -28 -41 -61 -82 -59 -70 -169 -154 -203 -154 -35 0 -16 31 69 115 50 50
103 113 118 140 l27 50 -42 -49 c-24 -27 -80 -88 -125 -135 l-81 -85 -49 26
c-26 14 -66 31 -88 39 l-40 13 67 12 c79 15 166 58 226 113 23 21 42 34 42 29
0 -5 5 -6 10 -3 6 3 10 15 10 26 0 10 6 28 12 39 11 18 14 18 28 4 13 -13 13
-16 0 -24z m-1749 -14 c-38 -39 -71 -51 -71 -26 0 15 74 70 94 70 17 0 12 -8
-23 -44z m1359 40 c0 -2 -8 -10 -17 -17 -16 -13 -17 -12 -4 4 13 16 21 21 21
13z m-1321 -82 c-6 -8 -20 -14 -30 -14 -22 0 -16 24 15 58 l21 24 3 -27 c2
-14 -2 -33 -9 -41z m946 15 c17 -22 62 -71 100 -107 140 -133 289 -289 350
-367 143 -183 249 -376 286 -522 l19 -79 -29 -115 c-41 -162 -113 -309 -198
-404 -46 -51 -133 -128 -139 -122 -2 1 17 41 41 88 82 158 136 339 134 446 -1
40 -4 31 -20 -57 -11 -57 -33 -144 -50 -193 -28 -86 -137 -312 -145 -304 -3 2
3 33 11 68 19 76 30 329 18 414 -6 47 -8 24 -9 -110 -1 -111 -7 -198 -18 -249
-19 -94 -30 -113 -22 -36 14 136 18 400 7 485 -12 87 -51 249 -90 376 -57 181
-335 549 -538 710 -34 28 -60 55 -57 61 12 19 109 1 172 -31 153 -77 305 -256
471 -556 34 -60 61 -106 61 -102 0 17 -64 146 -112 226 -155 258 -321 425
-468 468 -30 9 -50 18 -44 20 28 9 162 31 199 32 36 0 43 -4 70 -40z m945 -31
c0 -33 -89 -138 -165 -196 -22 -16 -23 -19 -7 -11 37 17 102 79 147 140 34 46
45 55 58 47 23 -12 21 -34 -9 -114 -32 -87 -62 -126 -121 -161 -38 -22 -59
-27 -114 -27 -53 -1 -71 3 -81 16 -7 9 -25 22 -40 27 -32 12 -37 31 -9 31 31
0 147 96 217 180 55 66 72 80 96 80 16 0 28 -5 28 -12z m-2021 -14 c4 3 22
-30 40 -72 38 -87 56 -198 71 -422 17 -270 80 -778 121 -985 24 -119 65 -269
84 -305 20 -35 18 -9 -4 85 -36 150 -70 340 -95 520 -38 280 -40 299 -27 291
14 -9 90 -126 140 -219 l41 -74 -50 -34 c-50 -34 -63 -62 -35 -73 9 -3 30 10
54 34 22 22 43 40 47 40 4 0 -4 -13 -19 -28 -35 -37 -34 -43 5 -30 28 10 33 9
51 -13 19 -24 117 -195 117 -204 0 -3 -28 -5 -62 -6 -35 -1 -54 -4 -43 -7 45
-15 21 -131 -81 -397 -7 -17 -6 -18 8 -7 9 7 33 51 54 97 38 85 49 96 72 73
30 -30 10 -95 -63 -197 -41 -57 -51 -92 -22 -74 6 4 38 6 70 5 l59 -3 -16 23
c-23 33 -20 50 20 96 41 48 61 52 93 19 20 -22 28 -24 96 -19 75 5 96 -5 58
-27 -16 -8 -15 -11 9 -21 33 -15 87 -6 121 20 32 25 53 25 67 1 14 -27 13 -31
-8 -31 -9 0 -34 -9 -55 -20 -58 -31 -111 -24 -147 22 -13 16 -20 17 -43 9 -45
-18 -45 -40 1 -83 33 -31 49 -38 81 -38 39 0 135 43 175 78 22 20 76 129 76
155 0 24 15 21 28 -7 9 -21 4 -33 -39 -96 -27 -40 -49 -76 -49 -79 0 -3 9 -21
21 -40 23 -37 40 -35 19 3 -11 22 -10 27 16 50 l29 25 28 -27 c22 -21 27 -22
27 -9 0 9 -8 25 -18 35 -27 27 -15 59 21 53 5 -1 6 7 2 18 -3 11 -1 22 5 26 5
3 10 2 10 -4 0 -14 49 -65 56 -59 3 3 -2 13 -12 22 -18 19 -16 24 46 86 l35
35 -49 5 c-56 6 -73 27 -29 36 15 3 46 21 68 40 l40 34 -107 0 c-60 0 -108 2
-108 5 0 2 9 19 20 37 11 18 20 41 20 50 0 26 14 29 66 13 65 -20 101 -19 55
1 -69 29 -274 75 -367 81 -67 4 -94 10 -90 18 2 7 7 57 11 113 l8 101 81 -5
c44 -3 125 -10 179 -16 85 -9 100 -13 117 -35 29 -37 125 -239 146 -305 17
-55 17 -62 0 -140 -9 -46 -19 -91 -22 -100 -3 -10 -1 -18 4 -18 6 0 27 34 48
75 33 65 46 80 99 115 34 21 92 71 129 111 37 39 69 69 71 67 2 -1 9 -97 16
-212 14 -244 7 -444 -20 -571 -28 -131 -98 -360 -131 -424 -65 -130 -220 -303
-387 -434 -57 -44 -103 -82 -103 -84 0 -9 72 37 148 95 111 83 230 206 293
302 73 110 93 151 145 290 23 63 56 147 72 186 59 141 67 200 66 499 -1 149
-6 299 -12 335 -8 52 -9 35 -4 -85 17 -377 4 -561 -52 -720 -30 -87 -32 -75
-6 41 11 49 23 130 26 179 6 100 -9 403 -28 538 -12 86 -11 89 12 133 l25 45
6 -28 c6 -24 7 -21 8 15 0 23 10 61 21 85 31 68 70 236 70 308 0 83 -20 149
-81 273 -99 199 -221 359 -431 567 -120 118 -154 159 -133 159 3 0 22 -11 43
-23 48 -31 119 -62 210 -93 156 -52 168 -63 265 -259 255 -510 314 -673 376
-1025 79 -448 73 -991 -13 -1294 -8 -28 -16 -67 -18 -86 -2 -29 -10 -39 -43
-58 -22 -13 -51 -33 -64 -45 -23 -22 -159 -188 -193 -237 -10 -14 9 31 41 100
32 69 75 166 95 217 42 109 106 317 105 341 -1 13 -2 12 -6 -3 -35 -146 -147
-427 -244 -614 -130 -251 -233 -411 -399 -616 l-81 -100 71 73 c91 96 195 235
288 386 41 67 71 112 67 101 -39 -106 -50 -145 -72 -240 -19 -85 -26 -150 -30
-285 l-5 -175 -49 -80 c-122 -200 -335 -444 -463 -530 -54 -37 -64 -40 -141
-43 -122 -6 -150 8 -289 144 -48 46 -83 92 -104 134 -33 65 -44 116 -20 92 18
-18 33 -15 18 3 -11 14 -10 14 14 5 15 -5 66 -10 114 -10 69 0 95 4 127 21
139 74 392 314 498 474 110 167 190 356 259 615 l30 115 102 105 c201 209 290
391 342 705 20 119 23 405 5 510 -17 106 -43 226 -48 221 -2 -2 4 -57 13 -122
24 -165 24 -461 0 -609 -49 -298 -141 -488 -334 -687 -179 -185 -313 -275
-524 -353 -117 -43 -100 -45 29 -4 125 40 220 84 307 142 38 26 70 47 71 47 9
0 -24 -105 -72 -230 -61 -159 -164 -371 -213 -437 -34 -46 -173 -144 -279
-198 -161 -80 -473 -190 -608 -214 -95 -17 -442 -51 -523 -51 -64 0 -150 14
-150 24 0 2 7 23 15 46 33 94 55 212 61 333 l7 127 29 0 c29 0 42 10 109 86
30 34 27 54 -7 54 -14 0 -33 4 -42 9 -9 4 -35 11 -57 14 -37 5 -35 3 29 -27
l68 -33 -32 -37 c-18 -20 -41 -41 -51 -46 -23 -13 -49 -2 -49 19 0 10 -7 39
-16 65 -14 40 -14 50 -3 57 11 6 10 9 -4 15 -28 11 -22 82 12 135 l29 46 72 6
c71 6 75 5 107 -23 19 -17 37 -30 41 -31 4 0 22 -2 41 -4 26 -2 35 1 38 16 6
22 14 24 31 7 22 -22 13 37 -10 68 l-22 28 -11 -44 -11 -44 -34 67 c-19 37
-38 67 -42 67 -9 0 5 -48 26 -88 9 -17 16 -34 16 -37 0 -3 -25 12 -56 34 -59
43 -91 46 -141 15 -20 -12 -30 -9 -105 31 -46 25 -94 45 -108 45 -14 0 -32 4
-40 10 -8 5 -17 5 -20 0 -3 -4 -20 -2 -38 6 -29 12 -33 18 -30 46 3 31 6 33
44 36 34 2 62 -7 144 -47 56 -28 110 -51 119 -51 9 0 38 11 65 24 38 19 55 22
74 15 14 -5 27 -7 30 -5 3 3 -8 10 -23 16 -29 11 -91 4 -101 -11 -12 -20 -69
-7 -152 35 -49 25 -111 49 -139 54 -45 8 -51 7 -63 -12 -13 -20 -13 -20 -20
-1 -4 12 -1 29 8 43 13 20 13 22 -1 22 -16 0 -35 -49 -39 -104 -1 -14 -7 -26
-14 -26 -16 0 -115 66 -224 149 -80 61 -187 122 -251 144 -14 5 -14 15 -3 104
19 147 86 477 119 588 9 28 23 86 33 130 17 73 21 80 44 83 22 3 25 0 21 -23
-3 -14 -9 -28 -14 -31 -5 -3 -9 -14 -9 -25 0 -23 17 -20 82 12 44 22 52 24 41
7 -4 -7 -8 -28 -10 -45 -3 -45 18 -43 67 8 30 31 46 40 67 38 15 -1 40 4 55
11 22 10 33 10 58 0 26 -11 33 -10 48 3 15 13 20 12 52 -19 41 -40 44 -40 70
-14 27 27 25 56 -5 92 -14 16 -25 38 -25 49 0 27 -27 35 -150 49 -212 23 -237
38 -195 112 13 23 31 73 40 109 l17 67 60 -14 c80 -19 90 -25 143 -93 25 -32
91 -98 145 -146 55 -49 100 -94 100 -101 0 -6 -9 -42 -21 -79 -11 -37 -23 -75
-25 -84 -14 -43 28 42 46 97 12 34 23 62 26 62 2 0 34 -20 71 -44 81 -52 273
-148 287 -143 5 2 -5 13 -23 26 -61 44 -179 319 -229 536 -62 267 -106 787
-83 990 7 60 7 60 15 -45 22 -286 129 -655 281 -965 30 -60 68 -126 85 -145
l30 -35 -36 65 c-79 143 -184 412 -222 570 -30 121 -51 309 -61 527 -10 230 0
518 19 553 8 15 15 20 18 12 2 -6 7 -10 11 -8z m242 -137 c63 -70 111 -135
146 -198 29 -52 59 -103 68 -114 14 -19 15 -19 6 6 -34 94 -99 199 -170 274
-70 74 -121 136 -121 150 0 3 15 5 33 5 37 0 90 -34 143 -91 69 -74 234 -335
234 -370 0 -7 6 -20 14 -28 44 -51 146 -363 178 -546 26 -154 29 -367 4 -415
-9 -18 -16 -56 -17 -84 0 -28 -9 -69 -19 -91 -10 -22 -19 -36 -19 -32 -1 4 -8
40 -16 80 -23 117 -35 234 -35 357 0 213 -31 406 -81 500 -16 30 -26 44 -23
30 56 -204 64 -267 80 -645 4 -88 10 -149 14 -135 6 24 6 24 13 -7 3 -18 9
-63 13 -100 l7 -68 -20 25 c-40 51 -85 122 -80 126 3 3 -9 21 -27 40 -27 30
-55 81 -139 254 -12 25 -24 47 -28 50 -4 3 -34 51 -68 107 -34 57 -84 127
-112 157 -29 32 -49 63 -49 77 0 12 -18 171 -41 353 -31 256 -45 339 -60 364
-21 37 -24 64 -9 93 11 19 11 19 49 0 20 -11 80 -66 132 -124z m-351 117 c0
-9 -14 -100 -32 -202 -31 -182 -32 -195 -32 -482 0 -322 10 -446 64 -746 32
-174 57 -254 127 -404 l44 -94 -31 29 c-17 17 -58 64 -90 105 -54 68 -89 129
-211 370 -21 41 -38 71 -39 67 0 -5 23 -63 50 -130 67 -162 119 -244 259 -411
15 -18 15 -18 -5 -8 -46 24 -182 132 -224 178 -66 71 -104 130 -166 257 -30
62 -52 99 -48 82 11 -54 100 -229 148 -292 69 -91 179 -181 329 -267 26 -15
47 -29 47 -32 0 -9 -105 52 -195 112 -148 99 -366 345 -427 484 -16 36 -49
103 -73 150 -67 132 -75 169 -75 361 0 206 14 284 76 426 25 60 49 112 54 116
4 4 -1 -34 -11 -85 -24 -117 -34 -319 -23 -423 8 -76 9 -70 15 110 3 107 14
234 24 290 21 120 56 247 70 252 7 2 10 -101 10 -294 0 -325 11 -423 61 -546
13 -34 22 -48 18 -32 -56 279 -69 418 -59 680 5 163 10 208 25 243 19 41 20
42 69 42 43 0 53 4 75 31 14 17 26 37 26 44 0 8 15 17 38 20 20 4 44 8 52 10
39 8 60 4 60 -11z m2245 -54 c3 0 4 4 1 9 -3 5 10 12 30 15 63 12 129 -47 183
-166 38 -83 25 -208 -27 -270 -33 -39 -170 -142 -232 -173 -52 -26 -147 -47
-178 -38 -20 5 -102 122 -102 145 0 6 9 8 23 4 46 -13 103 -17 132 -8 24 7 11
10 -72 17 -89 6 -103 10 -109 27 -7 24 -14 18 80 68 89 46 178 113 217 162 38
49 60 95 53 113 -5 12 -11 6 -24 -23 -33 -73 -166 -189 -287 -251 -23 -11 -46
-21 -50 -21 -9 0 -53 103 -53 123 0 9 19 13 68 13 53 0 80 5 130 28 83 38 116
80 149 186 25 84 26 84 43 62 10 -12 21 -22 25 -22z m-2217 -150 c-9 -149 -1
-432 17 -585 2 -22 -5 1 -16 50 -18 78 -21 126 -23 355 -1 194 3 277 12 309 7
23 15 41 17 40 2 -2 -1 -78 -7 -169z m2511 -19 c12 -16 27 -55 35 -88 8 -32
15 -51 16 -43 1 8 2 18 1 23 -2 15 19 6 29 -12 14 -27 13 -62 -4 -113 -7 -24
-19 -63 -26 -87 -17 -61 -103 -145 -205 -199 -83 -45 -70 -48 24 -6 113 51
196 142 208 228 6 43 8 47 14 26 12 -44 10 -169 -5 -203 -28 -68 -145 -147
-271 -182 -33 -9 -74 -23 -92 -31 -36 -16 -116 -19 -142 -4 -10 5 -24 24 -31
42 -7 18 -21 52 -31 75 -11 24 -19 45 -19 47 0 3 48 27 106 55 163 78 292 181
338 269 30 58 31 143 1 215 -12 30 31 20 54 -12z m-3020 -83 c-56 -96 -101
-202 -125 -298 -16 -61 -33 -103 -48 -120 -56 -59 -199 -333 -250 -479 -35
-96 -45 -114 -47 -81 -3 53 -30 -151 -38 -280 l-7 -135 -21 45 c-34 71 -57
306 -49 510 10 291 27 330 251 555 119 119 349 331 363 334 1 1 -12 -23 -29
-51z m3167 -186 c8 -31 19 -106 24 -167 14 -165 -1 -189 -185 -293 -159 -89
-225 -106 -336 -89 -43 7 -47 11 -58 46 -6 21 -11 41 -11 45 0 3 27 6 59 6
117 0 340 91 421 172 53 53 65 99 53 205 -10 97 -6 175 9 149 5 -9 16 -42 24
-74z m52 -38 c7 -14 17 -22 22 -19 12 7 34 -41 55 -118 l14 -52 0 55 c1 54 1
54 21 35 14 -15 23 -44 31 -105 5 -47 14 -111 19 -142 16 -104 -21 -202 -121
-318 -33 -38 -56 -70 -51 -70 21 0 103 102 137 170 20 40 38 70 40 69 8 -9
-27 -185 -51 -246 -14 -37 -31 -84 -37 -103 -15 -46 -88 -117 -156 -154 -49
-26 -66 -29 -171 -34 -89 -3 -129 -1 -172 12 -64 18 -63 17 -72 69 l-7 37 52
0 c86 0 318 89 389 149 21 18 18 17 -22 -4 -40 -22 -199 -85 -214 -85 -6 0 52
44 146 112 85 61 149 129 190 203 l34 60 -52 -47 c-55 -52 -157 -120 -240
-162 -64 -32 -162 -44 -216 -26 -45 15 -101 62 -123 103 -14 28 -14 30 3 23
43 -17 143 -27 203 -21 87 9 264 60 325 93 28 15 67 43 87 62 32 31 37 42 43
100 3 36 2 88 -3 115 -8 48 -9 47 -10 -35 -3 -156 -38 -194 -241 -263 -215
-73 -440 -67 -440 11 0 10 6 11 23 5 12 -4 60 -8 107 -8 79 0 89 3 150 37 36
20 99 54 140 76 91 49 148 105 161 158 16 72 9 179 -17 267 -8 27 11 20 24 -9z
m-662 -179 c-25 -19 -52 -19 -60 0 -4 12 3 15 37 15 39 -1 41 -2 23 -15z
m-1100 -162 c50 -48 119 -123 153 -166 71 -88 75 -86 -63 -22 -46 22 -67 26
-102 21 -38 -5 -44 -3 -44 13 0 10 -16 71 -35 137 -19 65 -35 120 -35 122 0
11 48 -29 126 -105z m-1617 55 c-5 -18 -11 -46 -14 -63 -2 -16 -13 -82 -24
-145 -18 -108 -40 -283 -59 -480 l-8 -85 -13 60 c-25 111 -4 349 44 500 3 11
-1 7 -10 -8 -60 -103 -80 -398 -36 -526 16 -46 20 -75 16 -103 -4 -22 -11 -36
-16 -31 -4 4 -20 51 -35 103 -22 81 -27 121 -31 275 -4 138 -8 174 -16 155 -6
-14 -11 -92 -11 -175 0 -158 17 -256 64 -362 24 -56 24 -62 1 -93 l-19 -24
-37 39 c-21 22 -51 69 -68 105 -26 55 -31 76 -31 145 0 48 6 100 16 130 9 28
31 97 49 155 36 116 110 268 182 374 26 39 47 73 47 78 0 4 4 8 9 8 6 0 6 -13
0 -32z m42 -213 c7 -38 17 -86 25 -107 11 -33 11 -37 -6 -41 -26 -7 -61 -66
-58 -97 3 -24 6 -25 68 -25 l65 0 42 -85 c23 -47 42 -87 42 -90 1 -3 -27 -3
-60 -2 -117 7 -200 -20 -109 -34 22 -4 40 -8 40 -10 0 -11 -64 -144 -69 -144
-3 0 -12 9 -18 19 -7 11 -26 22 -43 26 l-30 7 0 71 c0 139 88 690 97 607 2
-14 8 -56 14 -95z m3553 -112 c8 -95 -7 -217 -34 -280 -34 -77 -169 -204 -195
-183 -9 7 -22 7 -41 -1 -16 -6 -48 -14 -72 -18 -35 -7 -40 -6 -31 5 6 7 20 16
31 20 13 4 18 12 15 23 -3 14 5 20 37 29 84 22 188 145 225 266 10 34 24 103
31 154 7 52 16 88 20 80 4 -7 11 -50 14 -95z m61 -135 c5 -44 2 -81 -9 -123
-13 -51 -13 -57 0 -41 7 11 14 24 14 30 0 6 4 6 11 -1 8 -8 8 -25 1 -60 -6
-26 -13 -64 -16 -83 -5 -31 -4 -33 8 -17 20 26 26 21 26 -23 0 -45 -16 -65
-88 -111 -56 -35 -64 -36 -93 -4 -25 25 -63 32 -89 15 -17 -11 -12 -13 40 -14
19 -1 24 -6 22 -21 -2 -11 -5 -21 -5 -21 -1 -1 -33 2 -72 6 -38 5 -88 5 -110
1 -35 -6 -28 -8 60 -19 55 -6 113 -15 128 -18 20 -5 27 -3 25 6 -2 8 16 18 45
26 58 15 105 46 135 88 22 31 22 31 22 6 0 -58 -106 -143 -165 -133 l-30 5 22
-22 c20 -21 24 -22 55 -10 18 8 48 29 67 47 19 18 36 31 38 29 2 -1 -5 -24
-14 -51 -19 -49 -56 -76 -77 -55 -22 22 -26 8 -5 -22 l23 -31 43 47 c27 30 43
42 43 32 0 -25 -25 -79 -44 -95 -13 -11 -15 -25 -10 -75 15 -144 -50 -294
-229 -531 -142 -189 -254 -302 -382 -387 -134 -88 -159 -99 -216 -102 -43 -1
-49 1 -49 19 0 42 26 70 94 105 38 19 69 40 68 45 0 6 -25 16 -55 23 -53 13
-55 15 -47 40 13 44 29 82 34 82 3 0 57 13 121 29 103 27 118 34 147 67 56 62
62 80 59 184 -2 91 -19 179 -42 210 -9 12 -10 11 -4 -5 28 -85 37 -146 32
-220 -3 -44 -10 -92 -16 -107 -15 -41 -86 -83 -181 -106 -125 -32 -123 -32
-115 31 4 28 15 64 26 79 10 14 15 28 11 31 -4 2 -2 3 4 1 32 -7 64 59 64 133
0 36 6 49 44 88 43 44 53 63 76 153 12 48 37 56 43 15 2 -16 5 -1 6 32 1 33 5
65 9 70 8 13 67 55 76 55 3 0 7 -37 9 -82 l3 -83 2 92 2 91 32 11 c17 6 60 16
95 21 77 13 113 0 161 -54 25 -29 32 -46 32 -80 0 -114 -93 -259 -181 -281
-19 -5 -34 0 -57 20 -34 29 -42 23 -16 -13 18 -26 50 -28 117 -8 l47 14 -27
-51 c-16 -27 -73 -97 -128 -155 -76 -80 -92 -101 -66 -88 45 24 116 90 161
152 55 73 137 241 156 320 19 73 31 69 34 -11 1 -37 2 -38 11 -15 12 29 2 114
-16 150 -18 33 -82 94 -122 114 -42 21 -77 20 -181 -6 -76 -18 -92 -26 -124
-61 -21 -22 -41 -49 -44 -61 -4 -11 -13 -25 -20 -31 -8 -5 -27 -48 -44 -95
-17 -49 -40 -93 -53 -105 -36 -31 -67 -88 -61 -112 8 -29 -12 -86 -38 -109
l-21 -19 7 70 c15 145 25 325 26 460 0 133 1 143 29 201 29 62 99 128 126 118
7 -3 27 2 44 10 16 9 37 16 46 16 13 0 13 -3 3 -20 -19 -30 -2 -35 56 -17 63
20 66 20 66 5 0 -7 4 -20 9 -27 8 -13 15 -12 45 4 41 22 57 14 31 -15 -10 -11
-13 -20 -7 -20 13 0 32 32 32 54 0 12 -6 13 -36 4 -37 -10 -62 -3 -28 7 69 22
147 82 193 149 49 71 71 155 72 275 l0 106 19 -52 c10 -28 21 -80 25 -115z
m-326 106 c-65 -68 -194 -163 -215 -158 -10 3 -39 -2 -63 -11 -24 -8 -65 -15
-90 -15 -55 0 -87 27 -115 98 -24 63 -20 68 23 29 40 -36 105 -57 181 -57 42
0 159 54 245 114 65 45 78 45 34 0z m-370 -204 c21 0 64 9 96 20 32 11 60 18
63 16 7 -8 -61 -39 -148 -67 -94 -30 -93 -31 -105 40 l-7 45 32 -27 c22 -19
43 -27 69 -27z m-1604 -185 c31 -41 61 -77 66 -81 5 -3 9 -9 9 -14 0 -14 -84
2 -97 19 -11 14 -12 14 -13 -1 0 -15 -9 -18 -51 -18 l-51 0 8 33 c4 17 6 46 6
64 -1 23 6 38 25 53 14 11 29 20 34 20 4 0 33 -34 64 -75z m420 55 c119 -14
125 -21 73 -87 -38 -49 -44 -53 -84 -53 l-43 0 5 38 5 37 -31 -37 c-25 -30
-39 -38 -66 -38 -37 0 -39 3 -23 48 6 17 9 43 7 59 -3 25 -7 21 -41 -44 -26
-51 -43 -73 -56 -73 -19 0 -18 9 25 148 4 15 103 16 229 2z m1260 -80 c19 0
35 -3 35 -6 0 -12 -53 -69 -74 -81 -11 -6 -35 -38 -53 -70 l-33 -58 0 52 c0
28 4 54 9 58 6 3 4 17 -5 33 -7 15 -14 46 -14 69 l0 41 50 -19 c28 -10 66 -19
85 -19z m-3051 -86 c9 -8 16 -19 16 -23 0 -12 -23 -36 -51 -54 -26 -16 -27
-16 -32 11 -6 31 17 82 38 82 7 0 21 -7 29 -16z m-194 -146 l33 -26 -38 -12
c-20 -7 -41 -8 -45 -4 -25 27 -60 112 -60 147 l0 40 39 -60 c21 -32 53 -71 71
-85z m7 -84 c18 -5 21 -12 18 -45 -2 -21 -7 -49 -10 -60 -6 -18 -10 -13 -26
32 -28 79 -27 85 18 73z m298 -4 c3 -5 -1 -10 -9 -10 -9 0 -16 5 -16 10 0 6 4
10 9 10 6 0 13 -4 16 -10z m-335 -66 c0 -19 -9 -60 -21 -92 -91 -246 -152
-472 -173 -632 l-12 -95 -64 4 c-36 1 -68 5 -72 7 -9 6 7 48 147 374 62 146
128 313 146 372 32 107 49 128 49 62z m640 31 c18 -22 5 -30 -19 -13 -12 8
-18 18 -14 21 10 11 19 8 33 -8z m847 -31 c-2 -2 -16 0 -32 4 l-29 8 24 17
c24 16 25 16 32 -4 5 -12 7 -23 5 -25z m2433 20 c0 -8 -4 -12 -10 -9 -5 3 -10
10 -10 16 0 5 5 9 10 9 6 0 10 -7 10 -16z m-3896 -160 c6 -49 -22 -192 -68
-347 -24 -78 -56 -264 -56 -322 0 -25 -2 -26 -32 -20 -18 4 -35 9 -37 11 -2 2
3 59 13 126 18 134 49 262 94 403 16 50 37 116 46 148 9 32 20 55 25 53 5 -3
11 -26 15 -52z m3857 -285 c-68 -345 -213 -819 -323 -1055 -36 -77 -75 -165
-88 -197 -12 -32 -24 -56 -26 -54 -2 2 4 57 12 123 30 222 1 451 -76 604 -17
34 -28 66 -23 70 4 4 36 31 70 59 126 104 354 404 441 581 49 100 52 71 13
-131z m-3971 -441 c104 -28 168 -63 300 -162 63 -48 144 -101 180 -118 132
-65 172 -90 158 -100 -10 -8 -9 -9 4 -5 9 3 39 -2 67 -10 l51 -17 -40 -23
c-40 -24 -58 -54 -21 -33 31 16 36 12 15 -12 -10 -13 -3 -9 16 8 53 47 98 70
111 57 8 -8 1 -25 -26 -64 -30 -44 -36 -60 -32 -87 4 -22 2 -30 -5 -26 -8 5
-9 -1 -4 -17 4 -13 12 -42 17 -64 5 -22 17 -57 26 -78 13 -31 15 -58 9 -170
-8 -163 -57 -377 -86 -377 -5 0 -10 -10 -10 -22 0 -27 -79 -175 -130 -242 -57
-77 -281 -284 -340 -316 -96 -51 -221 -71 -385 -59 -227 15 -524 116 -634 215
-52 47 -181 243 -225 343 -47 106 -69 266 -63 456 7 196 23 273 82 393 25 50
52 110 60 132 43 121 123 204 279 288 114 61 241 117 286 124 14 2 79 5 145 5
93 1 137 -3 195 -19z m3190 -13 c-6 -8 -20 -17 -31 -20 -10 -4 -55 -52 -100
-108 -97 -123 -170 -267 -194 -382 -10 -44 -27 -114 -38 -155 -17 -62 -21
-104 -22 -235 0 -273 49 -476 137 -564 40 -41 40 -41 14 -41 -38 0 -103 64
-159 158 -91 154 -109 241 -97 467 16 290 72 468 208 660 106 150 201 231 276
234 15 1 16 -2 6 -14z m240 -122 c11 -15 18 -33 15 -41 -3 -8 3 -25 14 -36 24
-25 47 -109 61 -220 12 -95 13 -196 3 -196 -5 0 -8 -24 -8 -53 1 -28 -1 -56
-4 -61 -2 -5 -6 -27 -7 -50 -6 -67 -36 -198 -49 -209 -7 -6 -10 -19 -8 -28 3
-9 0 -20 -6 -23 -6 -4 -11 -16 -11 -27 0 -10 -4 -19 -10 -19 -5 0 -10 -6 -10
-13 0 -8 -7 -28 -16 -46 -14 -27 -18 -30 -32 -19 -13 11 -14 10 -4 -9 10 -18
6 -29 -35 -85 -52 -70 -113 -138 -125 -138 -15 0 -8 16 21 48 17 17 28 32 25
32 -4 0 26 50 36 60 3 3 10 19 16 35 6 17 15 29 20 28 5 -1 10 10 9 25 0 15 5
26 11 25 7 -1 10 6 7 17 -3 11 2 41 10 67 8 27 18 72 22 101 4 28 10 50 13 48
4 -2 7 24 7 57 1 34 5 132 9 217 4 85 8 188 8 228 0 64 2 71 16 60 14 -11 14
-10 0 12 -11 16 -16 43 -14 75 1 28 -3 57 -8 65 -6 8 2 4 17 -10 15 -13 25
-30 23 -37 -6 -14 10 -27 18 -15 3 5 -12 33 -34 62 -42 56 -45 76 -8 44 l23
-19 -19 23 c-11 12 -25 22 -33 22 -7 0 -13 7 -13 15 0 24 27 17 50 -12z m-61
-25 c17 -62 19 -147 10 -378 -15 -353 -45 -524 -123 -684 -45 -93 -109 -186
-127 -186 -41 0 -155 123 -178 191 -6 20 -34 65 -61 99 -49 60 -50 63 -50 129
0 57 7 84 42 167 22 54 62 158 87 231 l47 132 34 -47 c25 -33 43 -48 62 -50
l28 -3 -30 30 c-20 19 -30 40 -30 58 0 26 3 29 28 26 17 -3 39 4 61 19 53 35
51 51 -2 31 -54 -20 -77 -8 -77 38 0 30 43 79 69 79 8 0 52 36 97 80 45 44 86
80 91 80 6 0 16 -19 22 -42z m-329 -93 c-39 -142 -188 -560 -197 -551 -5 5 46
246 68 323 12 40 25 70 29 68 7 -4 80 141 80 158 0 14 30 80 34 76 3 -2 -4
-36 -14 -74z m145 48 c-11 -3 -39 -16 -62 -30 -45 -26 -53 -22 -27 15 12 18
24 22 62 21 26 -1 38 -4 27 -6z m-2419 -170 c-8 -8 -56 6 -56 17 0 5 13 5 31
-2 16 -6 28 -13 25 -15z m2768 -948 c24 -79 50 -130 98 -187 21 -27 35 -48 30
-48 -23 0 -180 32 -204 41 -35 14 -56 75 -64 184 -6 76 -5 84 25 143 17 34 40
83 50 110 10 26 22 56 26 67 6 13 11 -26 15 -115 4 -80 14 -159 24 -195z
m-1504 112 c-105 -103 -163 -137 -231 -137 l-44 0 90 49 c50 27 131 79 180
114 50 36 92 66 95 66 3 0 -38 -41 -90 -92z m668 26 c6 -27 14 -56 17 -65 4
-10 3 -18 -3 -18 -6 0 -45 -20 -87 -46 -43 -25 -79 -43 -81 -41 -3 2 25 49 61
103 36 54 65 102 65 106 0 4 4 8 8 8 5 0 14 -21 20 -47z m182 -1 c0 -13 -12
-22 -22 -16 -10 6 -1 24 13 24 5 0 9 -4 9 -8z m26 -78 c-7 -19 -32 -18 -40 3
-10 25 24 50 37 27 5 -8 6 -22 3 -30z m162 -154 l34 -23 -30 -19 c-62 -39
-130 0 -174 100 -20 44 -17 62 8 62 8 0 14 6 14 13 0 6 26 -16 58 -49 31 -34
72 -72 90 -84z m-338 120 c0 -5 -5 -10 -11 -10 -6 0 -28 -13 -48 -29 -51 -40
-201 -120 -201 -107 0 2 46 31 103 64 56 33 111 67 122 76 23 18 35 20 35 6z
m630 -47 c0 -21 7 -62 14 -91 l15 -54 -34 6 c-18 4 -57 13 -85 22 l-51 15 63
69 c35 38 66 69 71 69 4 1 7 -16 7 -36z m-605 -20 c9 -10 34 -43 55 -73 22
-30 59 -67 82 -83 39 -26 49 -28 102 -24 37 3 82 17 122 37 l65 32 87 -30 c91
-32 228 -57 397 -73 55 -5 111 -12 125 -15 l25 -6 -25 -18 c-22 -16 -13 -16
95 7 102 21 136 23 225 18 130 -8 177 -19 264 -62 104 -51 145 -83 251 -195
154 -164 343 -464 543 -865 66 -130 172 -390 189 -461 10 -43 10 -44 -21 -63
-52 -32 -294 -114 -411 -139 -22 -5 -83 -20 -135 -34 -369 -97 -821 -159
-1269 -175 -979 -33 -2111 110 -3116 394 -177 50 -582 177 -720 225 -33 12
-80 27 -104 34 -25 7 -47 18 -49 25 -6 18 45 86 95 127 46 38 204 112 338 159
54 19 107 29 165 33 78 4 94 1 195 -33 61 -20 153 -45 205 -55 96 -19 358 -51
395 -49 27 2 174 -19 216 -31 19 -6 53 -10 76 -10 l42 0 7 47 c9 62 -3 236
-21 298 l-15 50 8 -75 c12 -125 9 -244 -8 -276 -8 -16 -15 -30 -15 -31 0 -1
-34 7 -75 18 -48 13 -118 22 -195 24 -129 5 -293 24 -420 50 -98 20 -237 66
-241 80 -2 6 41 31 94 58 316 155 444 232 581 349 61 53 127 167 174 303 12
34 18 40 43 40 16 0 35 4 42 8 6 5 16 6 21 3 5 -4 31 -60 57 -126 26 -66 49
-118 52 -116 5 5 -34 144 -54 191 -19 47 -19 48 20 42 18 -3 38 -1 43 4 6 6
18 -3 31 -21 24 -32 60 -40 84 -17 28 25 55 35 69 26 23 -14 71 -10 84 7 9 13
16 14 33 5 29 -15 52 -14 52 4 0 16 14 18 45 6 24 -10 55 4 55 25 0 29 42 37
96 17 44 -17 56 -18 115 -7 65 12 152 49 198 85 13 11 32 19 43 19 10 0 29 11
41 24 13 13 36 26 52 28 25 2 34 12 57 61 15 31 31 57 36 57 4 0 18 -7 30 -16
23 -16 30 -39 10 -31 -43 15 -58 17 -58 7 0 -9 57 -40 74 -40 15 0 55 58 61
86 5 31 8 32 31 24 76 -29 124 2 124 80 0 53 10 62 35 33z m-65 -23 c0 -33 -5
-35 -46 -19 l-28 10 30 19 c39 26 44 25 44 -10z m-54 -46 c44 -19 31 -29 -22
-20 -20 4 -34 13 -34 21 0 19 9 19 56 -1z m544 12 c0 -3 -4 -8 -10 -11 -5 -3
-10 -1 -10 4 0 6 5 11 10 11 6 0 10 -2 10 -4z m-1508 -183 c17 -19 20 -26 9
-32 -25 -16 -287 -54 -376 -54 -117 -1 -129 3 -131 39 -1 16 -11 49 -21 74
-28 64 -36 100 -22 100 6 0 9 6 6 14 -4 11 7 9 41 -7 39 -18 65 -22 152 -22
95 0 111 3 175 31 l70 31 37 -75 c20 -41 47 -85 60 -99z m878 148 c0 -5 -7
-14 -15 -21 -8 -7 -15 -19 -15 -26 0 -18 -11 -18 -34 -1 -17 13 -16 15 15 35
37 24 49 27 49 13z m-176 -125 c-3 -9 -13 -16 -22 -16 -13 0 -12 3 3 20 20 23
29 21 19 -4z m-649 -95 c-12 -10 -119 -31 -154 -30 -14 0 12 9 59 19 106 22
106 22 95 11z m-192 -38 c-7 -2 -21 -2 -30 0 -10 3 -4 5 12 5 17 0 24 -2 18
-5z m-70 -10 c-7 -2 -19 -2 -25 0 -7 3 -2 5 12 5 14 0 19 -2 13 -5z m226 -15
c-1 -7 -4 -23 -7 -35 l-7 -22 -32 20 c-49 31 -44 38 35 48 6 0 12 -5 11 -11z
m76 -4 c44 -29 22 -58 -29 -38 -16 6 -22 35 -9 47 9 10 10 9 38 -9z m-561 -12
c2 -4 1 -14 -4 -22 -7 -11 -11 -11 -24 -1 -9 8 -16 17 -16 22 0 11 37 12 44 1z
m378 -9 c22 -20 24 -63 2 -63 -44 0 -69 41 -42 68 15 15 18 15 40 -5z m-302
-14 c10 -18 9 -20 -7 -17 -10 2 -19 11 -21 21 -5 24 15 21 28 -4z m61 8 c-1
-12 -15 -9 -19 4 -3 6 1 10 8 8 6 -3 11 -8 11 -12z m159 1 c-1 -33 -16 -38
-40 -13 l-23 25 31 0 c19 0 32 -5 32 -12z m-71 -30 c30 -33 31 -48 5 -48 -13
0 -54 55 -54 73 0 16 22 5 49 -25z m4574 -733 c42 -101 60 -192 53 -266 -15
-163 -69 -223 -199 -222 -71 1 -138 26 -241 90 l-49 31 90 -5 c78 -5 94 -3
132 16 65 34 126 95 151 153 20 47 22 65 18 174 -4 135 -1 138 45 29z m-6435
-411 c32 -9 104 -34 162 -56 741 -286 1655 -491 2575 -578 966 -90 1750 -48
2473 135 83 21 93 21 87 7 -4 -10 -12 -29 -17 -44 -5 -16 -14 -28 -19 -28 -5
0 -9 -8 -9 -17 0 -10 -18 -72 -39 -138 -67 -207 -132 -415 -172 -555 -57 -197
-60 -203 -140 -250 -37 -22 -90 -62 -117 -88 -26 -26 -37 -38 -23 -26 32 25
131 98 148 108 28 16 -2 -31 -50 -81 -47 -49 -49 -53 -43 -92 4 -30 3 -41 -6
-41 -8 -1 -7 -5 4 -13 9 -8 18 -31 20 -53 l3 -39 -200 -100 c-226 -113 -278
-146 -455 -291 -144 -117 -185 -158 -176 -173 11 -17 19 -14 102 41 44 28 124
75 179 104 55 30 96 54 92 54 -21 0 -165 -74 -243 -125 -47 -31 -88 -54 -90
-52 -6 5 313 277 351 300 17 9 59 31 95 48 36 17 116 55 178 85 124 59 127 60
116 42 -4 -7 6 -1 22 13 16 14 88 57 159 94 273 143 437 261 333 240 -54 -11
-287 -91 -376 -129 l-83 -36 -10 27 c-5 14 -8 30 -7 34 2 4 34 40 72 79 81 85
103 126 145 280 18 63 52 176 76 250 24 74 60 189 80 255 65 211 70 222 115
237 22 7 39 17 38 23 -2 5 -5 9 -8 9 -3 -1 -15 -5 -27 -9 -29 -8 -30 9 -4 52
13 20 31 34 53 38 88 19 289 91 380 136 56 27 102 48 103 47 1 -2 5 -15 8 -29
5 -21 2 -28 -18 -37 -14 -6 -25 -16 -25 -22 0 -6 13 -4 31 5 17 9 32 15 34 13
2 -3 17 -47 126 -363 63 -183 113 -316 134 -351 9 -16 13 -20 10 -9 -12 39 8
5 42 -72 61 -136 63 -144 47 -182 -26 -62 -148 -199 -294 -329 -106 -95 -202
-147 -485 -261 -82 -33 -217 -88 -300 -121 -134 -55 -205 -80 -500 -177 -77
-25 -225 -88 -225 -95 0 -2 44 10 98 27 53 18 112 35 130 38 29 6 33 4 28 -11
-3 -9 -10 -39 -16 -67 -6 -27 -35 -138 -65 -245 -30 -107 -64 -238 -75 -290
-36 -166 -125 -312 -237 -388 -101 -68 -446 -232 -460 -218 -3 2 1 31 8 65 12
56 11 62 -5 74 -11 8 -17 23 -14 38 2 19 8 23 29 21 25 -3 26 -1 47 105 12 59
26 171 33 248 6 77 17 210 24 295 7 85 11 159 8 163 -3 4 -14 7 -25 5 -34 -5
-32 19 5 54 l34 33 13 140 c6 77 14 143 17 147 7 12 44 9 108 -8 99 -27 96
-29 115 56 9 41 26 111 38 155 11 44 24 125 27 181 7 100 7 101 -17 108 -83
23 -597 36 -742 18 l-59 -7 -33 -130 c-31 -121 -58 -309 -47 -328 3 -5 11 -6
19 -3 7 3 52 -2 99 -10 47 -8 98 -13 113 -12 27 3 27 3 24 -57 -1 -33 -7 -114
-14 -180 l-11 -120 -46 -42 -46 -42 33 -30 c17 -17 32 -38 32 -48 0 -19 -34
-226 -50 -308 -6 -27 -17 -104 -25 -169 -11 -95 -19 -124 -36 -142 -18 -19
-20 -30 -14 -66 10 -67 7 -127 -11 -200 -19 -79 -15 -95 23 -100 20 -2 -16
-17 -122 -52 -82 -26 -162 -54 -176 -62 -15 -7 -57 -22 -95 -32 -38 -11 -161
-53 -274 -95 -316 -116 -535 -178 -955 -267 -77 -17 -189 -42 -250 -57 -133
-33 -319 -38 -394 -10 -68 24 -289 162 -362 225 -353 304 -391 341 -483 476
-26 38 -58 91 -72 119 -14 27 -39 68 -55 90 -43 59 -19 58 49 0 70 -60 94 -76
72 -47 -8 10 -23 30 -35 43 l-20 25 30 -18 c17 -11 50 -35 75 -55 33 -27 40
-30 28 -12 -38 54 -247 183 -389 239 -88 35 -148 74 -204 131 l-39 41 30 0
c16 0 46 11 65 25 66 44 165 193 199 300 7 22 19 49 26 60 27 41 62 152 68
215 11 108 -7 203 -55 295 -23 44 -59 106 -81 138 -22 32 -44 72 -50 90 -6 18
-20 45 -32 62 -56 80 -11 327 77 423 24 26 78 30 97 7 13 -15 9 -131 -6 -182
-5 -19 -1 -22 43 -28 26 -4 86 -15 132 -25 47 -10 88 -17 92 -15 3 3 12 33 18
67 7 35 21 96 32 137 12 47 19 108 19 166 l0 91 -47 46 c-66 65 -127 89 -240
95 l-91 6 -6 31 c-8 43 -73 176 -86 176 -16 0 -11 -78 10 -160 11 -41 20 -78
20 -82 0 -4 -21 2 -46 12 -25 11 -50 20 -55 20 -13 0 -11 -33 5 -70 10 -25 14
-29 19 -15 4 9 2 25 -3 36 -13 23 3 25 40 4 36 -21 60 -19 60 5 0 11 -9 53
-20 92 -27 99 -24 126 7 58 41 -90 42 -145 3 -242 -49 -125 -108 -213 -221
-333 -31 -33 -73 -87 -94 -120 -43 -70 -45 -90 25 233 47 217 50 241 49 366
-1 192 43 682 72 789 9 33 13 37 32 32 20 -6 19 -4 -5 18 -31 27 -34 37 -16
55 16 16 29 15 96 -4z m5827 -235 c4 -11 4 -23 0 -27 -7 -7 -25 17 -25 36 0
20 18 14 25 -9z m-5488 -735 c28 -14 67 -42 87 -64 33 -36 36 -45 36 -98 -1
-31 -7 -88 -15 -127 -8 -38 -20 -99 -26 -135 -7 -36 -15 -68 -18 -73 -4 -4
-55 3 -114 15 -87 18 -106 26 -101 38 3 8 11 43 16 78 10 57 9 66 -9 90 -16
21 -30 28 -66 30 -40 3 -50 -1 -85 -32 -59 -53 -103 -173 -109 -296 l-5 -95
59 -110 c73 -136 150 -295 169 -348 8 -22 14 -76 14 -120 0 -66 -7 -100 -36
-186 -48 -145 -113 -275 -171 -344 -58 -70 -97 -97 -140 -97 -30 0 -35 5 -63
59 -32 65 -100 239 -100 259 0 7 13 12 31 12 43 0 99 58 130 135 21 54 24 73
22 188 -3 148 -7 162 -112 335 l-62 103 17 52 c43 133 115 250 259 422 37 44
81 109 99 145 17 36 37 70 44 75 7 6 16 33 20 60 6 41 11 50 32 55 47 11 144
-2 197 -26z m4973 -618 c0 -18 -446 -264 -457 -252 -4 3 -7 25 -7 48 l-1 42
110 44 c199 80 355 132 355 118z m-1250 -16 c69 -5 144 -12 168 -16 l42 -7 0
-68 c0 -74 -18 -173 -52 -291 -21 -71 -25 -78 -48 -78 -15 0 -30 4 -35 9 -13
13 -155 26 -155 15 0 -5 -9 -76 -20 -157 -17 -138 -21 -150 -49 -183 -42 -47
-41 -91 2 -107 16 -6 18 -15 13 -69 -4 -35 -13 -130 -20 -213 -8 -82 -18 -190
-22 -240 -4 -49 -14 -116 -23 -150 l-16 -60 -50 -6 c-44 -5 -45 -6 -13 -7 l37
-2 -15 -27 c-16 -33 -18 -59 -4 -68 12 -7 3 -134 -10 -148 -4 -5 -45 -19 -90
-32 -71 -20 -91 -22 -148 -14 -36 5 -68 12 -71 14 -2 3 4 31 14 62 19 63 23
117 10 177 -7 34 -5 41 14 56 19 13 25 32 33 101 6 46 28 192 49 323 44 271
44 266 26 266 -8 0 -22 9 -32 20 -15 16 -15 22 -5 35 7 8 23 15 36 15 30 0 37
13 39 69 1 25 5 103 10 172 4 69 5 137 2 151 -9 33 -42 45 -148 54 -48 3 -92
10 -99 14 -13 8 3 106 51 297 l24 92 60 4 c129 7 376 6 495 -3z m1685 -218
c-69 -62 -156 -127 -211 -160 -96 -57 -212 -102 -246 -95 -32 6 -55 30 -42 42
21 19 156 82 248 116 54 20 131 52 170 70 72 34 98 42 81 27z m-6012 -110 c70
-120 70 -121 75 -229 4 -84 1 -114 -17 -175 -12 -40 -27 -84 -34 -96 -13 -28
-56 -52 -90 -52 -23 0 -27 7 -43 78 -15 60 -19 110 -17 229 2 135 23 318 39
345 10 15 39 -19 87 -100z"/>
<path d="M5742 7690 c0 -19 2 -27 5 -17 2 9 2 25 0 35 -3 9 -5 1 -5 -18z"/>
<path d="M5731 7636 c-2 -34 -52 -249 -113 -476 -68 -256 -118 -473 -117 -510
0 -14 9 16 19 65 20 100 78 334 139 558 48 179 85 352 78 369 -3 8 -6 5 -6 -6z"/>
<path d="M5493 6565 c0 -27 2 -38 4 -22 2 15 2 37 0 50 -2 12 -4 0 -4 -28z"/>
<path d="M3481 10686 c3 -3 32 -23 65 -44 32 -21 91 -65 129 -97 39 -32 59
-46 45 -31 -31 34 -170 141 -213 162 -18 9 -29 14 -26 10z"/>
<path d="M3804 8679 c-9 -15 11 -33 30 -26 9 4 13 13 10 22 -7 17 -30 20 -40
4z"/>
<path d="M3710 8649 c0 -16 4 -19 20 -14 11 4 20 2 20 -4 0 -6 5 -11 10 -11
20 0 10 38 -12 44 -35 9 -38 8 -38 -15z"/>
<path d="M2623 8603 c9 -2 25 -2 35 0 9 3 1 5 -18 5 -19 0 -27 -2 -17 -5z"/>
<path d="M2440 8484 c-136 -99 -176 -158 -168 -246 6 -63 43 -108 127 -160 81
-49 119 -97 135 -170 4 -16 11 -28 16 -28 13 0 13 96 0 120 -5 10 -47 41 -92
69 -97 58 -135 94 -148 142 -13 42 -4 108 18 141 20 29 129 128 141 128 8 0
25 30 19 35 -2 1 -23 -13 -48 -31z"/>
<path d="M4841 8304 c0 -11 3 -14 6 -6 3 7 2 16 -1 19 -3 4 -6 -2 -5 -13z"/>
<path d="M2645 8126 c-11 -8 -16 -19 -12 -30 7 -17 54 -20 156 -8 45 6 52 9
39 19 -15 13 -102 33 -142 33 -12 0 -31 -6 -41 -14z"/>
<path d="M4316 6744 c-175 -168 -391 -296 -530 -315 -87 -12 -212 0 -287 26
-59 21 -59 12 -1 -13 27 -12 90 -27 139 -33 102 -14 192 -4 287 31 80 30 258
152 348 239 67 63 128 132 116 131 -2 -1 -34 -30 -72 -66z"/>
<path d="M2451 9614 c0 -11 3 -14 6 -6 3 7 2 16 -1 19 -3 4 -6 -2 -5 -13z"/>
<path d="M2491 9484 c-1 -15 30 -106 35 -101 2 2 -5 28 -15 58 -11 30 -20 49
-20 43z"/>
<path d="M5029 10633 c65 -63 77 -163 30 -254 -20 -41 -82 -98 -147 -136 -52
-31 -49 -42 5 -15 65 34 143 102 165 145 43 86 20 223 -48 276 -44 35 -48 24
-5 -16z"/>
<path d="M4960 9919 c-14 -6 -43 -14 -65 -19 l-40 -8 35 -1 c19 0 53 8 75 18
42 20 38 27 -5 10z"/>
<path d="M1944 10019 c-19 -39 -34 -73 -32 -75 2 -2 21 30 41 71 20 41 35 75
32 75 -3 0 -21 -32 -41 -71z"/>
<path d="M1896 9915 c-9 -26 -7 -32 5 -12 6 10 9 21 6 23 -2 3 -7 -2 -11 -11z"/>
<path d="M1876 9865 c-9 -26 -7 -32 5 -12 6 10 9 21 6 23 -2 3 -7 -2 -11 -11z"/>
<path d="M1831 9724 c0 -11 3 -14 6 -6 3 7 2 16 -1 19 -3 4 -6 -2 -5 -13z"/>
<path d="M1816 9674 c-4 -14 -5 -28 -3 -31 3 -2 8 8 11 23 4 14 5 28 3 31 -3
2 -8 -8 -11 -23z"/>
<path d="M1791 9564 c0 -11 3 -14 6 -6 3 7 2 16 -1 19 -3 4 -6 -2 -5 -13z"/>
<path d="M1782 9510 c0 -14 2 -19 5 -12 2 6 2 18 0 25 -3 6 -5 1 -5 -13z"/>
<path d="M5681 9207 c-11 -18 -48 -59 -81 -91 -63 -60 -74 -84 -21 -47 40 29
146 171 128 171 -3 0 -15 -15 -26 -33z"/>
<path d="M5210 8951 c-34 -17 -80 -73 -80 -95 0 -6 12 7 26 28 17 24 44 46 77
62 30 14 43 24 32 24 -11 0 -36 -8 -55 -19z"/>
<path d="M2258 7498 c19 -23 42 -26 87 -12 l40 12 -46 -5 c-28 -3 -55 0 -70 7
-21 12 -23 12 -11 -2z"/>
<path d="M2413 7325 c-3 -9 -3 -18 -1 -21 3 -3 8 4 11 16 6 23 -1 27 -10 5z"/>
<path d="M2403 7250 c0 -25 2 -35 4 -22 2 12 2 32 0 45 -2 12 -4 2 -4 -23z"/>
<path d="M926 6838 c-9 -12 -15 -38 -15 -58 1 -26 3 -28 6 -10 9 58 15 71 36
80 16 6 18 9 5 9 -9 1 -24 -9 -32 -21z"/>
<path d="M1005 6830 c10 -11 20 -20 23 -20 3 0 -3 9 -13 20 -10 11 -20 20 -23
20 -3 0 3 -9 13 -20z"/>
<path d="M1075 6720 c9 -16 18 -30 21 -30 2 0 -2 14 -11 30 -9 17 -18 30 -21
30 -2 0 2 -13 11 -30z"/>
<path d="M1110 6661 c5 -11 15 -23 21 -27 6 -3 3 5 -6 20 -20 30 -30 35 -15 7z"/>
<path d="M1999 6580 c13 -11 30 -20 39 -20 19 0 15 3 -28 24 l-35 17 24 -21z"/>
<path d="M1188 6548 c46 -66 107 -137 133 -155 13 -9 1 8 -27 38 -28 30 -68
78 -88 107 -45 62 -60 70 -18 10z"/>
<path d="M2118 6523 c6 -2 18 -2 25 0 6 3 1 5 -13 5 -14 0 -19 -2 -12 -5z"/>
<path d="M1373 6435 c-3 -9 -3 -18 -1 -21 3 -3 8 4 11 16 6 23 -1 27 -10 5z"/>
<path d="M1341 6352 c-1 -29 -24 -74 -46 -92 -10 -8 -38 -17 -64 -21 l-46 -6
42 -2 c31 -1 49 5 71 24 34 28 56 75 49 102 -4 14 -5 13 -6 -5z"/>
<path d="M1030 6337 c0 -2 15 -16 33 -33 l32 -29 -29 33 c-28 30 -36 37 -36
29z"/>
<path d="M1100 6275 c0 -8 61 -36 70 -33 5 2 -9 11 -30 20 -22 9 -40 15 -40
13z"/>
<path d="M5175 6920 c9 -16 18 -30 21 -30 2 0 -2 14 -11 30 -9 17 -18 30 -21
30 -2 0 2 -13 11 -30z"/>
<path d="M5349 6110 c-165 -145 -251 -200 -586 -369 -164 -83 -369 -190 -454
-239 -213 -123 -662 -352 -688 -352 -11 0 -21 2 -21 5 0 8 50 134 112 280 77
181 78 185 26 90 -25 -44 -68 -120 -97 -170 -67 -116 -99 -223 -72 -239 28
-18 237 73 421 182 202 119 454 256 760 411 190 97 384 202 432 234 88 58 298
250 287 261 -3 4 -57 -39 -120 -94z"/>
<path d="M3695 5837 c-44 -94 -113 -231 -153 -305 -40 -74 -72 -136 -70 -138
9 -8 221 393 262 495 26 63 45 115 43 117 -1 2 -38 -74 -82 -169z"/>
<path d="M3141 5714 c0 -11 3 -14 6 -6 3 7 2 16 -1 19 -3 4 -6 -2 -5 -13z"/>
<path d="M3151 5674 c0 -11 3 -14 6 -6 3 7 2 16 -1 19 -3 4 -6 -2 -5 -13z"/>
<path d="M3335 5213 c-37 -50 -54 -63 -84 -63 -13 0 -22 -3 -18 -6 3 -3 24 -3
47 1 33 6 47 15 71 47 16 23 29 45 29 50 0 18 -19 6 -45 -29z"/>
<path d="M5224 5054 c-19 -42 -37 -98 -39 -123 -5 -46 -5 -46 8 9 7 30 18 64
25 75 9 16 11 5 12 -65 0 -95 17 -175 57 -262 41 -91 44 -67 4 30 -35 84 -36
91 -36 214 0 69 -3 121 -7 115 -15 -23 -8 24 7 53 9 17 13 30 10 30 -4 0 -22
-34 -41 -76z"/>
<path d="M5175 4829 c2 -38 14 -77 35 -119 32 -64 119 -165 175 -203 17 -11
-7 16 -51 59 -92 89 -139 170 -154 262 l-9 57 4 -56z"/>
<path d="M1290 4865 c0 -5 24 -16 68 -29 12 -4 22 -3 22 2 0 5 -17 14 -39 20
-43 13 -51 14 -51 7z"/>
<path d="M1410 4822 c0 -5 17 -14 38 -21 20 -7 43 -15 50 -17 6 -3 12 -1 12 4
0 6 -21 17 -47 26 -54 19 -53 18 -53 8z"/>
<path d="M1535 4780 c-3 -4 16 -15 41 -24 30 -10 44 -11 42 -4 -5 15 -76 39
-83 28z"/>
<path d="M1640 4742 c0 -13 118 -53 125 -42 3 5 -19 16 -47 26 -29 9 -59 19
-65 22 -7 2 -13 0 -13 -6z"/>
<path d="M1784 4691 c7 -10 92 -41 115 -41 25 0 0 16 -53 34 -56 18 -70 20
-62 7z"/>
<path d="M1930 4643 c0 -11 98 -38 107 -29 6 6 -37 25 -79 33 -16 3 -28 1 -28
-4z"/>
<path d="M2054 4609 c-6 -10 22 -22 74 -34 17 -3 32 -3 32 2 0 13 -99 43 -106
32z"/>
<path d="M2180 4570 c0 -11 24 -22 73 -34 48 -11 27 15 -24 30 -53 16 -49 16
-49 4z"/>
<path d="M7077 4558 c-22 -11 -37 -22 -34 -25 7 -7 75 16 82 27 11 18 -12 17
-48 -2z"/>
<path d="M2295 4532 c14 -14 85 -35 93 -28 11 12 -13 25 -58 32 -30 4 -42 3
-35 -4z"/>
<path d="M6983 4518 c-23 -11 -31 -28 -13 -28 16 0 60 23 60 32 0 11 -20 9
-47 -4z"/>
<path d="M2410 4502 c0 -12 93 -36 112 -29 16 6 -25 23 -76 32 -22 5 -36 3
-36 -3z"/>
<path d="M6883 4478 c-53 -20 -74 -46 -30 -34 43 10 97 36 97 46 0 13 -4 12
-67 -12z"/>
<path d="M2544 4469 c-6 -10 0 -12 61 -28 48 -13 75 -14 75 -3 0 12 -129 41
-136 31z"/>
<path d="M2695 4430 c-5 -8 15 -16 99 -36 36 -9 32 17 -5 26 -57 15 -89 19
-94 10z"/>
<path d="M6731 4424 c-19 -8 -31 -17 -28 -21 8 -7 96 17 103 28 8 14 -38 10
-75 -7z"/>
<path d="M2840 4395 c0 -7 13 -15 29 -18 16 -3 41 -9 56 -13 21 -5 26 -3 23 6
-6 19 -108 42 -108 25z"/>
<path d="M2970 4367 c0 -9 19 -18 57 -26 68 -13 83 -14 83 -2 0 5 -26 15 -57
21 -32 7 -63 15 -70 17 -7 3 -13 -1 -13 -10z"/>
<path d="M6500 4358 c-37 -10 -57 -24 -49 -33 9 -8 109 25 109 35 0 12 -13 11
-60 -2z"/>
<path d="M3130 4331 c0 -9 83 -31 115 -31 35 0 11 19 -35 29 -62 13 -80 14
-80 2z"/>
<path d="M6353 4322 c-62 -15 -85 -33 -40 -31 44 2 120 24 125 37 5 15 -6 14
-85 -6z"/>
<path d="M3276 4301 c11 -10 104 -31 139 -31 48 0 24 18 -38 29 -78 13 -114
14 -101 2z"/>
<path d="M6198 4288 c-21 -6 -38 -15 -38 -20 0 -6 14 -8 38 -4 55 10 72 16 72
27 0 11 -23 10 -72 -3z"/>
<path d="M3450 4273 c0 -11 139 -37 148 -28 13 12 -17 24 -80 30 -42 5 -68 4
-68 -2z"/>
<path d="M6052 4261 c-18 -3 -33 -10 -32 -16 0 -12 0 -12 68 -2 28 4 52 12 52
17 0 11 -35 11 -88 1z"/>
<path d="M3620 4251 c0 -15 10 -18 73 -26 37 -5 57 -4 57 3 0 6 -12 13 -27 16
-81 15 -103 16 -103 7z"/>
<path d="M5931 4241 c-19 -3 -36 -12 -39 -19 -3 -10 5 -12 34 -7 58 10 74 15
74 26 0 10 -16 10 -69 0z"/>
<path d="M3770 4225 c0 -10 10 -15 28 -15 15 0 51 -3 80 -6 34 -5 52 -3 52 4
0 6 -26 13 -57 17 -32 3 -68 8 -80 11 -16 3 -23 0 -23 -11z"/>
<path d="M5810 4223 c-78 -12 -90 -15 -90 -25 0 -7 19 -8 58 -4 71 9 92 15 92
27 0 9 -13 10 -60 2z"/>
<path d="M3950 4205 c0 -10 11 -15 33 -15 17 0 49 -3 70 -6 40 -7 54 12 15 20
-74 15 -118 15 -118 1z"/>
<path d="M5607 4200 c-57 -7 -76 -15 -65 -26 11 -11 161 11 166 24 4 13 -10
14 -101 2z"/>
<path d="M4110 4191 c0 -11 36 -21 78 -21 44 0 41 16 -5 24 -53 8 -73 7 -73
-3z"/>
<path d="M4230 4182 c0 -5 7 -13 16 -16 26 -10 124 -7 124 4 0 6 -11 10 -24
10 -13 0 -44 3 -70 6 -29 4 -46 3 -46 -4z"/>
<path d="M5428 4183 c-44 -7 -32 -23 16 -23 49 0 76 7 76 21 0 9 -40 10 -92 2z"/>
<path d="M4392 4169 c6 -17 138 -26 138 -9 0 5 -11 10 -24 10 -13 0 -45 3 -71
7 -38 5 -47 3 -43 -8z"/>
<path d="M5282 4173 c-35 -7 -15 -23 28 -23 44 0 70 8 70 21 0 9 -55 10 -98 2z"/>
<path d="M4550 4161 c0 -10 128 -27 136 -18 4 3 3 10 -1 16 -8 13 -135 15
-135 2z"/>
<path d="M5013 4163 c-54 -7 -38 -24 20 -21 28 2 52 8 52 13 0 11 -25 14 -72
8z"/>
<path d="M5100 4154 c0 -14 8 -16 46 -10 26 3 60 6 75 6 16 0 29 5 29 10 0 6
-32 10 -75 10 -63 0 -75 -3 -75 -16z"/>
<path d="M4710 4150 c0 -5 24 -10 54 -10 30 0 58 5 61 10 4 6 -17 10 -54 10
-34 0 -61 -4 -61 -10z"/>
<path d="M4840 4150 c0 -6 27 -10 60 -10 33 0 60 4 60 10 0 6 -27 10 -60 10
-33 0 -60 -4 -60 -10z"/>
<path d="M1271 4064 c0 -11 3 -14 6 -6 3 7 2 16 -1 19 -3 4 -6 -2 -5 -13z"/>
<path d="M1302 3895 c0 -16 2 -22 5 -12 2 9 2 23 0 30 -3 6 -5 -1 -5 -18z"/>
<path d="M1944 3890 c-18 -7 -22 -22 -32 -131 -6 -68 -14 -178 -17 -244 -7
-134 -24 -279 -60 -495 -13 -80 -38 -241 -55 -359 -35 -251 -40 -272 -81 -331
-25 -37 -29 -50 -22 -75 4 -16 8 -94 8 -171 l0 -142 94 -21 c52 -12 103 -27
113 -32 13 -7 29 -6 52 2 30 11 37 21 59 83 14 39 48 123 76 186 43 97 54 115
73 115 29 0 43 -39 34 -88 -5 -28 -14 -40 -41 -52 -40 -20 -51 -42 -31 -64 41
-46 108 -161 122 -208 9 -30 21 -56 27 -58 7 -2 55 -11 107 -20 52 -10 100
-20 106 -22 16 -6 67 95 61 123 -2 13 1 24 6 24 6 0 2 6 -9 14 -18 14 -18 17
-4 43 11 20 26 29 50 33 32 5 35 8 35 38 0 17 2 32 4 32 2 0 34 -9 71 -20 l68
-20 -10 -43 c-5 -23 -20 -73 -34 -112 -14 -38 -26 -77 -27 -84 -2 -18 24 -26
128 -40 44 -5 127 -26 185 -46 186 -65 197 -67 340 -69 l134 -1 10 30 c6 17
11 32 13 34 1 2 30 -2 64 -9 l61 -13 -7 -45 c-8 -56 -1 -62 85 -62 68 0 228
-34 340 -73 55 -19 86 -22 208 -22 166 0 165 0 176 90 5 47 3 59 -14 77 -11
12 -20 26 -20 31 0 5 18 27 40 50 22 22 43 52 46 66 3 14 11 53 19 86 8 33 11
63 7 66 -4 4 -32 3 -62 -1 -66 -10 -305 -12 -349 -4 -26 6 -31 11 -31 35 0 45
51 292 63 308 15 17 102 8 166 -18 51 -21 205 -46 222 -36 5 4 8 19 4 34 -3
15 1 59 10 99 19 91 19 85 -6 79 -15 -4 -19 -1 -17 11 2 9 14 19 28 22 21 5
28 17 47 85 14 53 19 85 12 96 -13 26 -132 49 -248 49 -100 0 -101 0 -101 24
0 31 50 168 64 178 19 13 85 9 193 -13 58 -11 109 -17 113 -12 11 11 46 129
55 183 3 25 20 96 36 158 17 63 28 120 25 127 -5 14 -83 39 -156 50 -25 4 -81
15 -125 25 -76 18 -146 22 -352 21 l-93 -1 0 -31 c0 -16 -4 -49 -10 -72 -5
-23 -21 -96 -36 -162 -14 -66 -68 -304 -119 -530 -80 -348 -131 -593 -159
-756 -4 -20 -15 -44 -26 -54 -25 -23 -44 -80 -36 -111 5 -18 2 -24 -9 -24 -30
0 -105 22 -105 31 0 5 -6 9 -14 9 -14 0 -26 29 -26 67 0 13 12 30 31 44 39 27
113 183 102 214 -2 6 -60 9 -157 7 -149 -3 -260 8 -280 28 -9 9 46 262 66 303
13 25 81 22 153 -9 54 -22 186 -54 226 -54 12 0 18 14 22 58 3 31 27 120 52
196 25 77 44 145 41 152 -8 21 -135 55 -226 60 -135 8 -131 6 -116 57 7 23 24
65 37 92 l24 50 60 0 c50 -1 200 -35 255 -58 8 -4 22 -2 30 3 12 7 13 13 3 28
-15 25 33 222 85 341 46 108 58 98 -203 167 -146 38 -168 42 -300 49 -66 4
-134 10 -152 15 -22 6 -35 4 -42 -4 -6 -7 -8 -15 -5 -19 6 -6 -82 -326 -206
-747 -43 -146 -94 -323 -114 -393 -28 -101 -41 -133 -61 -149 -44 -34 -54 -66
-40 -120 6 -27 9 -48 6 -48 -3 0 -32 8 -63 18 -42 13 -53 20 -43 27 16 12 105
282 135 410 11 49 57 198 102 330 45 132 107 344 138 470 32 127 60 237 64
245 12 30 -178 105 -283 112 l-44 3 -34 -100 c-18 -54 -33 -105 -33 -113 0
-11 -100 -277 -188 -502 -20 -50 -46 -64 -56 -28 -3 13 -6 68 -6 124 0 67 -4
106 -13 118 -21 29 -80 44 -144 37 l-57 -6 -38 -65 c-21 -36 -38 -60 -38 -54
0 6 27 141 60 299 68 326 76 416 38 436 -25 14 -141 43 -208 54 -25 3 -52 8
-60 10 -8 2 -24 0 -36 -5z m195 -45 c52 -13 98 -30 102 -37 13 -20 2 -87 -67
-413 -70 -332 -83 -415 -65 -415 6 0 19 15 28 34 10 19 37 66 61 104 47 79 68
89 152 75 l45 -8 15 -131 c16 -137 28 -167 64 -162 26 4 34 21 135 273 87 220
135 364 146 438 7 48 11 51 55 48 42 -3 214 -62 233 -81 18 -16 18 -19 2 -49
-9 -18 -34 -104 -56 -191 -21 -87 -53 -196 -70 -242 -17 -46 -44 -135 -60
-198 -16 -63 -43 -155 -58 -205 -16 -49 -62 -191 -101 -315 -39 -124 -78 -230
-87 -237 -9 -7 -37 -10 -74 -8 -32 3 -95 -2 -141 -11 -46 -9 -103 -20 -128
-24 -28 -6 5 -7 92 -3 162 6 214 0 221 -28 4 -14 -6 -26 -39 -46 -24 -16 -47
-38 -50 -50 -6 -22 -7 -22 -47 -5 -23 9 -102 39 -176 67 -140 53 -180 82 -100
72 24 -3 36 -4 26 -1 -13 4 -16 11 -12 22 4 10 10 49 12 87 4 56 2 73 -10 84
-25 20 -70 10 -84 -19 -26 -53 -121 -277 -133 -312 -6 -21 -15 -40 -19 -43 -5
-2 -42 4 -82 14 -41 10 -91 22 -111 25 -21 4 -39 10 -41 14 -3 4 0 61 5 127 7
85 7 124 -1 137 -19 30 -12 61 23 113 32 47 36 61 61 240 14 105 42 288 61
407 45 283 62 449 70 686 l7 192 51 0 c28 0 93 -11 145 -25z m1256 -351 c89
-6 426 -85 453 -107 7 -6 9 -14 3 -21 -12 -16 -56 -155 -82 -261 -12 -49 -25
-94 -29 -98 -4 -5 -25 -4 -46 2 -135 35 -166 41 -211 41 -43 0 -55 -4 -71 -25
-44 -56 -96 -225 -74 -239 6 -3 62 -10 126 -15 109 -9 191 -25 210 -42 4 -4
-9 -61 -29 -126 -21 -65 -43 -140 -50 -168 l-12 -50 -43 4 c-43 3 -68 10 -184
50 -60 21 -121 27 -143 13 -17 -11 -26 -39 -68 -204 -28 -112 -34 -151 -26
-166 16 -30 89 -43 274 -49 92 -3 167 -7 167 -7 0 -1 -9 -26 -20 -56 -13 -38
-33 -67 -61 -91 -41 -36 -42 -38 -37 -87 5 -50 5 -50 -20 -41 -42 16 -36 2 8
-21 29 -15 40 -26 36 -36 -3 -9 -6 -19 -6 -23 0 -9 -169 -6 -242 4 -28 4 -82
19 -118 32 -98 38 -248 80 -313 88 -31 4 -57 10 -57 14 0 3 14 50 32 104 21
62 38 97 47 97 25 0 241 -91 373 -157 70 -34 131 -63 135 -63 4 0 -37 26 -92
57 -92 53 -385 193 -403 193 -12 0 -62 82 -62 103 0 10 20 42 44 71 41 47 48
65 96 231 28 99 78 270 110 380 70 238 145 523 161 619 l11 68 62 -6 c33 -3
102 -8 151 -12z m1065 -121 c227 -47 235 -49 234 -64 -1 -8 -11 -49 -23 -92
-12 -43 -31 -126 -42 -185 -11 -59 -22 -109 -24 -112 -2 -4 -37 0 -77 7 -111
21 -212 27 -235 14 -13 -7 -32 -41 -51 -93 -38 -108 -49 -168 -31 -179 8 -5
66 -9 129 -10 63 0 138 -6 165 -13 56 -13 58 -20 36 -104 -11 -37 -17 -44 -71
-69 -59 -27 -85 -52 -34 -33 33 13 34 13 34 -5 0 -7 7 -18 16 -23 13 -7 14
-17 3 -77 l-11 -68 -62 6 c-33 2 -90 15 -126 27 -78 27 -178 30 -195 6 -17
-23 -78 -342 -71 -371 9 -36 37 -40 254 -39 105 1 192 -2 192 -5 -1 -3 -7 -32
-14 -63 -10 -42 -22 -65 -45 -84 -26 -21 -31 -33 -31 -69 0 -24 5 -56 10 -71
6 -14 8 -42 4 -60 l-6 -34 -147 3 c-134 2 -155 5 -249 35 -115 37 -234 62
-293 62 -35 0 -39 3 -39 25 0 14 7 28 16 32 12 4 11 8 -8 17 -18 9 -24 21 -26
54 -3 39 1 47 33 78 36 34 37 37 61 187 13 83 49 262 79 397 121 530 145 641
169 775 14 77 27 160 31 185 l5 45 158 -3 c122 -2 185 -9 282 -29z m-2193
-1366 c43 -19 113 -46 155 -61 66 -24 78 -32 83 -56 5 -24 -1 -72 -11 -91 -2
-4 -32 -1 -66 7 -35 7 -82 13 -105 14 l-42 0 -16 59 c-11 37 -32 77 -56 106
-21 26 -39 49 -39 51 0 9 22 2 97 -29z"/>
<path d="M1312 3825 c0 -16 2 -22 5 -12 2 9 2 23 0 30 -3 6 -5 -1 -5 -18z"/>
<path d="M7385 5431 l-69 -27 -14 -64 c-17 -82 -11 -146 17 -173 29 -30 122
-33 147 -6 16 18 16 20 -4 42 -12 13 -22 28 -22 35 0 6 -8 16 -19 21 -21 12
-35 65 -22 89 9 19 4 42 -10 42 -5 0 -9 -10 -9 -22 0 -12 -10 -32 -21 -44 -22
-24 -20 -54 3 -54 9 0 8 3 -2 10 -13 8 -13 11 2 26 16 16 17 16 23 -7 3 -13 7
-49 8 -79 2 -53 1 -55 -25 -58 -45 -5 -62 33 -55 123 3 41 10 81 15 90 12 23
122 67 127 52 24 -77 36 -139 38 -203 2 -78 2 -78 -28 -93 -16 -8 -51 -15 -77
-15 -26 0 -45 -3 -42 -8 15 -24 146 4 166 35 17 26 -25 283 -50 308 -4 4 -38
-5 -77 -20z m43 -205 c-2 -8 6 -22 17 -30 15 -11 17 -17 8 -27 -21 -21 -43 -2
-43 36 0 19 5 35 10 35 6 0 10 -6 8 -14z"/>
</g>
</svg>
